<?xml version="1.0" encoding="UTF-8" standalone="no"?>
<!-- Created with Inkscape (http://www.inkscape.org/) -->

<svg
   xmlns:dc="http://purl.org/dc/elements/1.1/"
   xmlns:cc="http://creativecommons.org/ns#"
   xmlns:rdf="http://www.w3.org/1999/02/22-rdf-syntax-ns#"
   xmlns:svg="http://www.w3.org/2000/svg"
   xmlns="http://www.w3.org/2000/svg"
   xmlns:sodipodi="http://sodipodi.sourceforge.net/DTD/sodipodi-0.dtd"
   xmlns:inkscape="http://www.inkscape.org/namespaces/inkscape"
   id="svg4155"
   version="1.1"
   inkscape:version="0.91 r13725"
   xml:space="preserve"
   width="88.582497"
   height="88.582123"
   viewBox="0 0 88.582499 88.582125"
   sodipodi:docname="UiBmerke_grayscaleV8.svg"><metadata
     id="metadata4161"><rdf:RDF><cc:Work
         rdf:about=""><dc:format>image/svg+xml</dc:format><dc:type
           rdf:resource="http://purl.org/dc/dcmitype/StillImage" /><dc:title></dc:title></cc:Work></rdf:RDF></metadata><defs
     id="defs4159" /><sodipodi:namedview
     pagecolor="#ffffff"
     bordercolor="#666666"
     borderopacity="1"
     objecttolerance="10"
     gridtolerance="10"
     guidetolerance="10"
     inkscape:pageopacity="0"
     inkscape:pageshadow="2"
     inkscape:window-width="1279"
     inkscape:window-height="995"
     id="namedview4157"
     showgrid="false"
     inkscape:zoom="7.6605183"
     inkscape:cx="44.288998"
     inkscape:cy="44.289002"
     inkscape:window-x="0"
     inkscape:window-y="0"
     inkscape:window-maximized="0"
     inkscape:current-layer="g4163"
     fit-margin-top="0"
     fit-margin-left="0"
     fit-margin-right="0"
     fit-margin-bottom="0" /><g
     id="g4163"
     inkscape:groupmode="layer"
     inkscape:label="ink_ext_XXXXXX"
     transform="matrix(1.25,0,0,-1.25,-17.71725,106.29937)"><g
       id="g4165"
       transform="scale(0.1,0.1)"><path
         d="m 205.242,571.367 c -6.402,1.11 -18.328,2.953 -21.726,1.738 -1.368,-0.511 -2.411,-2.25 -3.067,-4.8 l -0.652,-2.532 c -0.832,-0.503 -2.141,-0.058 -2.442,0.629 0.875,3.895 1.649,7.696 2.34,11.727 0.754,4.336 1.133,7.148 1.567,10.898 0.664,0.743 1.98,0.407 2.515,-0.214 l -0.222,-2.524 c -0.235,-2.617 0.351,-4.734 1.59,-5.598 3.156,-2.035 15.043,-4.086 20.832,-5.082 l 11.679,-2.023 c 8.985,-1.551 18.25,-4.645 23.449,-11.508 4.09,-5.285 5.45,-13.394 4.137,-21.043 -1.238,-7.133 -3.816,-14.027 -9.031,-18.34 -5.496,-4.691 -13.484,-5.965 -25.789,-3.847 l -24.387,4.226 c -10.754,1.86 -12.539,1.953 -14.094,-3.953 l -0.652,-2.551 c -0.527,-0.547 -2.246,-0.031 -2.449,0.633 1.101,5.137 1.812,8.637 2.527,12.77 0.735,4.238 1.223,7.668 1.887,12.765 0.418,0.559 2.215,0.465 2.516,-0.226 L 175.559,540 c -0.532,-6.09 1.187,-6.598 11.941,-8.457 l 22.324,-3.855 c 16.641,-2.887 28.489,0.386 31.223,16.203 2.598,14.988 -8.203,22.703 -23.918,25.418 l -11.887,2.058"
         style="fill:#000000;fill-opacity:1;fill-rule:nonzero;stroke:none"
         id="path4167"
         inkscape:connector-curvature="0" /><path
         d="m 270.508,654.809 c 2.754,-1.532 13.64,-7.618 16.18,-8.672 0.453,-0.489 0.597,-1.297 0.042,-2.305 -2.179,-0.227 -6.867,-1.094 -20.382,-3.996 l -36.043,-7.734 c -4.211,-0.887 -15.2,-2.918 -18.293,-3.711 l -0.098,-0.184 c 0.891,-0.984 2.949,-2.246 5.691,-3.781 l 19.961,-11.16 c 4.309,-2.407 16.25,-8.953 19.875,-8.934 1.321,-0.019 2.879,1.504 4.344,3.695 l 1.867,2.676 c 1.043,0.149 2.09,-0.555 2.176,-1.449 -2.476,-4.027 -4.351,-7.168 -6.25,-10.566 -2.144,-3.848 -3.433,-6.368 -5.047,-9.668 -0.808,-0.399 -2.148,0.238 -2.39,1.093 l 1.113,2.621 c 0.894,2.262 1.172,4.039 0.418,5.047 -2.586,3.133 -13.809,9.282 -18.203,11.735 l -26.465,14.793 c -2.559,1.429 -4.531,2.406 -7.715,1.664 -1.992,-0.575 -3.867,-2.403 -5.359,-4.453 l -1.059,-1.457 c -0.855,-0.235 -2.234,0.527 -2.183,1.464 2.417,3.7 5.132,8.539 6.05,10.192 0.825,1.465 1.594,3.07 2.082,4.367 5.696,-0.777 23.809,3.273 28.887,4.398 l 14.949,3.305 c 10.571,2.383 18.203,4.004 25,5.852 l 0.11,0.179 c -0.246,0.625 -1.707,1.446 -3.645,2.516 l -19.59,10.949 c -4.304,2.403 -16.258,8.961 -19.976,8.762 -1.133,-0.09 -2.5,-1.25 -5,-4.66 l -1.059,-1.453 c -0.906,-0.332 -2.32,0.582 -2.183,1.464 2.539,4.11 4.363,7.172 6.316,10.649 2.195,3.937 3.437,6.371 4.988,9.586 0.871,0.476 2.153,-0.246 2.395,-1.094 l -0.535,-1.387 c -1.184,-3.183 -1.465,-5.425 -0.942,-6.203 2.426,-3.398 13.879,-9.554 18.098,-11.914 l 21.875,-12.226"
         style="fill:#000000;fill-opacity:1;fill-rule:nonzero;stroke:none"
         id="path4169"
         inkscape:connector-curvature="0" /><path
         d="m 270.188,708.047 c -7.993,7.719 -9.426,8.808 -14.102,4.719 l -1.977,-1.743 c -0.73,-0.16 -1.953,1.301 -1.738,1.969 3.801,3.629 6.352,6.125 9.414,9.293 2.91,3.02 5.305,5.66 8.789,9.574 0.676,0.243 2.168,-0.921 2.043,-1.668 l -1.672,-2.027 c -3.925,-4.82 -2.781,-6.211 5.215,-13.93 l 26.867,-25.929 c 7.996,-7.719 9.2,-8.594 14.036,-4.645 l 2.046,1.668 c 0.735,0.164 1.946,-1.301 1.743,-1.969 -3.801,-3.632 -6.348,-6.125 -9.258,-9.14 -3.071,-3.172 -5.473,-5.813 -8.957,-9.731 -0.664,-0.23 -2.012,0.782 -2.032,1.672 l 1.59,2.102 c 3.774,4.961 2.864,6.136 -5.132,13.855 l -26.875,25.93"
         style="fill:#000000;fill-opacity:1;fill-rule:nonzero;stroke:none"
         id="path4171"
         inkscape:connector-curvature="0" /><path
         d="m 307.41,749.016 c -5.176,3.683 -7.676,4.711 -11.773,2.754 l -1.711,-0.836 c -0.965,0.14 -1.653,1.437 -1.223,2.332 2.688,1.441 5.578,3.144 9.399,5.55 3.906,2.457 6.953,4.504 10.562,7.036 0.844,0.031 1.856,-1.188 1.582,-2.114 l -1.226,-1.011 c -3.086,-2.571 -3.457,-3.551 -3.11,-4.313 0.742,-0.777 5.278,-4.613 12.27,-9.629 10.562,-7.719 21.09,-15.351 31.89,-22.672 -0.933,7.594 -2.965,19.078 -3.894,25.071 -1.231,7.648 -3.379,20.308 -4.27,25.078 -0.468,2.308 -0.996,3.34 -1.386,3.957 -0.387,0.625 -1.727,0.773 -5.055,-0.828 l -1.699,-0.825 c -0.969,0.133 -1.621,1.582 -1.235,2.329 2.602,1.386 6.028,3.421 9.399,5.546 2.925,1.844 5.625,3.668 8.433,5.692 0.84,0.035 1.742,-1.387 1.582,-2.11 l -2.554,-1.855 c -2.012,-1.52 -2.676,-3.418 -2.661,-6.012 0.149,-5.734 1.223,-15.105 2.93,-26.668 l 2.094,-13.933 c 1.601,-10.403 3.902,-23.317 5.367,-28.977 -0.152,-0.348 -0.457,-0.652 -0.816,-0.879 -0.434,-0.285 -0.942,-0.472 -1.489,-0.57 -3.336,3.109 -7.671,6.453 -11.519,9.226 l -39.887,28.661"
         style="fill:#000000;fill-opacity:1;fill-rule:nonzero;stroke:none"
         id="path4173"
         inkscape:connector-curvature="0" /><path
         d="m 395.039,789.664 c -2.969,10.492 -3.613,11.953 -9.758,10.977 l -1.668,-0.258 c -0.722,0.23 -1.035,2.105 -0.515,2.578 4.402,1.027 7.859,1.898 11.992,3.062 l 18.973,5.368 c 6.464,1.828 12.414,3.507 13.535,4.156 1.093,-1.547 3.75,-8.637 5.41,-12.969 -0.227,-0.719 -1.785,-1.379 -2.461,-0.914 -2.852,4.316 -4.766,7.59 -10.379,7.422 -2.258,-0.098 -5.52,-0.906 -9.953,-2.168 l -7.277,-2.055 c -3.028,-0.847 -2.965,-1.05 -1.883,-4.886 l 5.703,-20.188 c 0.801,-2.824 1.101,-2.738 4.14,-1.879 l 5.848,1.645 c 4.231,1.207 7.309,2.293 8.399,3.039 1.105,0.746 1.64,1.547 1.425,4.219 l -0.359,4.363 c 0.332,0.75 2.051,1.23 2.656,0.64 0.684,-2.421 1.387,-6.468 2.481,-10.308 1.023,-3.633 2.519,-7.352 3.144,-9.574 -0.215,-0.821 -1.926,-1.305 -2.597,-0.844 l -2.032,3.68 c -0.91,1.707 -2.05,3.019 -4.211,2.957 -1.519,0 -3.972,-0.586 -7.918,-1.704 l -5.847,-1.652 c -3.02,-0.851 -3.293,-1.043 -2.563,-3.664 l 4.028,-14.227 c 1.511,-5.351 2.781,-8.699 4.89,-9.96 1.543,-0.872 3.985,-1.372 12.863,1.132 7.762,2.196 10.583,3.434 12.489,5.168 1.535,1.528 3.261,5.825 4.394,11.813 0.567,0.703 2.071,0.808 2.735,0.012 0.293,-3.731 -0.039,-12.219 -0.586,-15.313 -9.141,-2.363 -18.145,-4.805 -27.129,-7.348 l -9.082,-2.566 c -4.336,-1.23 -7.742,-2.301 -13.633,-4.184 -0.703,0.133 -1.355,1.684 -0.918,2.465 l 3.242,1.246 c 5.606,2.133 5.684,3.789 2.696,14.379 l -10.274,36.34"
         style="fill:#000000;fill-opacity:1;fill-rule:nonzero;stroke:none"
         id="path4175"
         inkscape:connector-curvature="0" /><path
         d="m 477.734,806.031 c 0.079,9.965 -0.234,11.746 -4.531,12.305 l -3.34,0.437 c -0.742,0.536 -0.722,2.211 0.117,2.625 5.879,0.489 13.118,0.754 23.399,0.68 6.504,-0.043 12.676,-0.601 17.48,-3.254 5.032,-2.656 8.661,-7.402 8.614,-14.746 -0.059,-9.961 -7.969,-15.363 -13.235,-17.422 -0.515,-0.633 0,-1.679 0.52,-2.523 8.301,-13.586 13.801,-22.008 20.898,-28.039 1.778,-1.582 4.375,-2.754 7.207,-2.985 0.528,-0.214 0.625,-1.046 0.098,-1.468 -0.945,-0.301 -2.617,-0.504 -4.609,-0.493 -8.914,0.059 -14.247,2.715 -21.641,13.356 -2.688,3.898 -6.953,11.164 -10.156,15.906 -1.563,2.317 -3.242,3.375 -7.422,3.403 -4.727,0.031 -4.942,-0.067 -4.942,-2.274 l -0.097,-13.215 c -0.071,-11.004 0.136,-12.269 6.211,-13.152 l 2.199,-0.328 c 0.625,-0.528 0.398,-2.309 -0.227,-2.617 -4.726,0.238 -8.281,0.367 -12.48,0.394 -4.414,0.027 -8.184,-0.047 -13.113,-0.226 -0.625,0.32 -0.832,1.89 -0.188,2.625 l 2.617,0.296 c 6.094,0.692 6.309,2.051 6.387,13.063 l 0.234,37.652 z m 8.516,-15.051 c -0.02,-1.886 -0.02,-3.046 0.293,-3.46 0.312,-0.325 1.875,-0.543 7.227,-0.571 3.769,-0.031 7.753,0.36 10.82,2.656 2.844,2.176 5.281,5.836 5.332,12.969 0.058,8.281 -5.039,16.18 -16.68,16.258 -6.504,0.047 -6.816,-0.371 -6.836,-3.312 l -0.156,-24.54"
         style="fill:#000000;fill-opacity:1;fill-rule:nonzero;stroke:none"
         id="path4177"
         inkscape:connector-curvature="0" /><path
         d="m 570.84,739.707 c -8.418,2.652 -12.891,6.93 -14.434,8.629 -0.515,2.578 0.43,10.086 1.707,14.852 0.715,0.542 2.297,0.269 2.512,-0.458 -0.129,-5.578 0.879,-16.671 12.48,-20.332 8.399,-2.652 14.239,1.555 16.141,7.551 1.379,4.403 2.024,9.586 -3.777,16.598 l -7.559,9.199 c -3.957,4.879 -7.949,12.406 -5.351,20.613 2.988,9.5 12.832,14.868 25.82,10.754 3.113,-0.976 6.523,-2.715 8.906,-4.23 1.16,-0.817 2.5,-1.453 3.301,-1.711 0.137,-2.688 -0.723,-8.57 -2.051,-12.766 -0.586,-0.476 -2.285,-0.265 -2.59,0.492 0.215,5.207 -0.437,12.563 -10.039,15.59 -9.801,3.102 -13.953,-2.746 -15.41,-7.34 -1.824,-5.8 1.645,-11.519 4.621,-14.992 l 6.414,-7.523 c 5.078,-5.887 9.438,-13.649 6.438,-23.145 -3.465,-11.004 -14.141,-15.883 -27.129,-11.781"
         style="fill:#000000;fill-opacity:1;fill-rule:nonzero;stroke:none"
         id="path4179"
         inkscape:connector-curvature="0" /><path
         d="m 654.043,762.59 c 5.801,9.476 6.562,11.101 1.555,14.781 l -2.129,1.551 c -0.317,0.687 0.847,2.191 1.551,2.125 4.367,-2.918 7.343,-4.863 11.101,-7.168 3.574,-2.195 6.672,-3.969 11.262,-6.531 0.371,-0.594 -0.449,-2.313 -1.192,-2.344 l -2.343,1.191 c -5.555,2.785 -6.68,1.379 -12.481,-8.105 l -19.504,-31.836 c -5.8,-9.477 -6.394,-10.84 -1.492,-14.699 l 2.07,-1.637 c 0.313,-0.684 -0.847,-2.188 -1.55,-2.125 -4.368,2.914 -7.356,4.867 -10.93,7.062 -3.75,2.297 -6.856,4.071 -11.426,6.633 -0.383,0.598 0.32,2.133 1.192,2.344 l 2.39,-1.102 c 5.656,-2.609 6.613,-1.464 12.414,8.016 l 19.512,31.844"
         style="fill:#000000;fill-opacity:1;fill-rule:nonzero;stroke:none"
         id="path4181"
         inkscape:connector-curvature="0" /><path
         d="m 698.711,677.852 c -8.086,-7.481 -9.102,-8.704 -5.352,-13.528 l 2.039,-2.679 c 0.122,-0.743 -1.406,-1.864 -2.058,-1.622 -3.906,4.54 -6.25,7.223 -9.102,10.305 -2.851,3.078 -5.422,5.707 -10.117,10.492 -0.203,0.672 0.957,2.035 1.926,1.782 l 2.781,-2.559 c 4.453,-4.035 5.957,-3.352 14.043,4.121 l 34.434,31.82 c 2.383,2.207 2.461,2.282 0.332,4.59 l -3.914,4.235 c -3.059,3.312 -7.141,7.41 -10.688,7.695 -3.406,0.277 -5.808,-0.512 -8.515,-1.449 -1.036,0.191 -1.649,1.625 -1.305,2.504 4.598,1.968 10.594,5.371 14.168,7.679 0.371,-0.09 1.367,-1.019 1.355,-1.465 -2.039,-2.738 0.383,-5.207 3.664,-8.753 l 28.828,-31.192 c 3.848,-4.16 4.649,-4.707 7.715,-4.012 0.508,-0.246 1.211,-1.164 1.055,-1.601 -3.945,-2.07 -10.684,-7.301 -12.781,-9.664 -0.91,-0.266 -2.114,1.047 -2.004,1.855 1.719,2.016 4.062,5.192 3.84,7.125 -0.325,2.985 -2.422,6.481 -6.328,10.715 l -5.059,5.465 c -2.141,2.316 -2.141,2.164 -4.68,-0.18 l -34.277,-31.679"
         style="fill:#000000;fill-opacity:1;fill-rule:nonzero;stroke:none"
         id="path4183"
         inkscape:connector-curvature="0" /><path
         d="m 754.16,607.273 c 1.778,1.657 1.875,2.168 0.528,5.016 l -6.797,14.305 c -1.114,2.367 -1.68,2.804 -3.973,2.515 l -11.535,-1.398 c -4.922,-0.606 -7.793,-1.152 -8.848,-1.656 -1.133,-0.532 -1.465,-1.274 -0.586,-3.645 l 1.192,-3.262 c -0.149,-0.882 -1.668,-1.609 -2.442,-0.929 -0.996,2.547 -2.383,5.492 -4.394,9.988 -1.492,3.125 -3.301,6.445 -4.602,8.961 0.11,0.754 1.527,1.656 2.277,1.312 l 1.758,-2.992 c 1.27,-2.183 3.301,-3.773 7.344,-3.476 5.176,0.355 12.598,0.629 25.09,1.683 l 30.164,2.477 c 4.043,0.293 6.113,0.582 7.488,1.586 1.75,-1.961 4.223,-2.762 5.949,-3.223 0.274,-0.566 0.391,-1.32 -0.175,-1.82 -3.594,-3.219 -7.227,-6.801 -10.723,-10.195 l -31.934,-31.059 c -6.843,-6.613 -7.675,-8.516 -6.211,-12.816 l 0.926,-2.704 c -0.164,-0.882 -1.765,-1.414 -2.371,-1.121 -1.66,3.981 -3.125,7.336 -5.156,11.602 -2.149,4.551 -4.063,8.062 -5.449,10.766 0,0.925 1.484,1.753 2.265,1.308 l 1.602,-2.605 c 1.133,-1.907 2.324,-2.965 3.269,-2.516 1.047,0.504 2.532,1.777 4.446,3.621 l 10.898,10.277 z m -0.469,22.766 c -2.539,-0.277 -2.578,-0.414 -1.328,-3.066 l 5.535,-11.66 c 1.301,-2.75 1.77,-2.75 3.918,-0.688 l 13.02,12.445 c 1.922,1.84 4.07,3.907 4.937,5.016 l -0.085,0.184 c -0.618,0.066 -3.34,-0.067 -6.68,-0.379 l -19.317,-1.852"
         style="fill:#000000;fill-opacity:1;fill-rule:nonzero;stroke:none"
         id="path4185"
         inkscape:connector-curvature="0" /><path
         d="m 747.766,535.855 c -1.282,8.715 0.593,14.614 1.433,16.758 2.11,1.582 9.278,4.012 14.121,4.942 0.801,-0.407 1.231,-1.93 0.684,-2.442 -5.066,-2.336 -14.609,-8.101 -12.82,-20.129 1.289,-8.718 7.625,-12.125 13.855,-11.207 4.551,0.68 9.512,2.36 13.262,10.661 l 4.961,10.8 c 2.656,5.703 7.683,12.59 16.203,13.848 9.851,1.465 18.973,-5.031 20.965,-18.516 0.488,-3.215 0.41,-7.05 0.09,-9.847 -0.215,-1.422 -0.215,-2.895 -0.09,-3.731 -2.356,-1.301 -8.028,-3.094 -12.383,-3.738 -0.676,0.32 -1.231,1.941 -0.684,2.547 4.766,2.086 11.094,5.883 9.629,15.84 -1.504,10.172 -8.574,11.351 -13.347,10.648 -6.016,-0.891 -9.641,-6.512 -11.457,-10.707 l -3.958,-9.062 c -3.085,-7.145 -8.14,-14.469 -18.003,-15.922 -11.411,-1.692 -20.461,5.761 -22.461,19.257"
         style="fill:#000000;fill-opacity:1;fill-rule:nonzero;stroke:none"
         id="path4187"
         inkscape:connector-curvature="0" /><path
         d="m 236.395,419.551 c 7.289,2.683 9.003,3.769 7.765,8.34 l -0.871,3.261 c 0.297,1.004 1.816,1.446 2.5,0.801 2.465,-5.117 5.227,-11.699 8.606,-20.848 2.293,-6.203 3.984,-12.277 3.371,-17.55 -0.508,-4.981 -3.246,-9.688 -9.536,-12.032 -7.085,-2.617 -12.253,0.176 -17.195,5.059 -0.976,-0.352 -0.984,-1.269 -0.781,-2.422 0.984,-5.664 -1.024,-15.359 -11.543,-19.258 -11.414,-4.218 -22.219,1.407 -28.77,19.121 -1.054,2.84 -2.546,7.774 -4.074,11.907 -1.597,4.324 -3.035,7.605 -4.48,11.199 0.078,0.703 1.582,1.484 2.39,1.105 l 0.95,-1.652 c 2.812,-4.883 3.964,-4.687 14.296,-0.859 l 37.372,13.828 z m -32.918,-21.36 c -3.536,-1.316 -8.477,-3.355 -9.954,-6.023 -1.57,-2.715 -0.964,-5.852 0.122,-8.789 3.242,-8.75 9.656,-13.992 19.48,-10.352 7.773,2.871 15.371,10.157 9.578,25.801 -1.961,5.313 -2.691,5.488 -4.668,4.746 l -14.558,-5.383 z m 22.832,8.45 c -2.762,-1.016 -2.918,-1.192 -0.871,-6.133 4.101,-9.883 9.066,-14.219 18.312,-10.801 9.641,3.574 10.613,12.109 7.852,19.59 -0.789,2.148 -1.536,3.555 -2.254,4.297 -0.664,0.879 -1.313,1.074 -3.071,0.429 l -19.968,-7.382"
         style="fill:#000000;fill-opacity:1;fill-rule:nonzero;stroke:none"
         id="path4189"
         inkscape:connector-curvature="0" /><path
         d="m 267.996,346.621 c 8.715,6.555 9.848,7.676 6.723,13.059 l -0.84,1.465 c -0.039,0.757 1.601,1.726 2.226,1.414 2.54,-3.743 4.586,-6.661 7.176,-10.086 l 11.848,-15.774 c 4.019,-5.371 7.73,-10.32 8.75,-11.133 -1.059,-1.562 -6.723,-6.601 -10.156,-9.714 -0.754,-0.051 -1.938,1.16 -1.743,1.961 2.993,4.218 5.375,7.187 3.184,12.363 -0.894,2.07 -2.828,4.824 -5.601,8.515 l -4.536,6.036 c -1.89,2.519 -2.058,2.382 -5.254,0 l -16.765,-12.598 c -2.356,-1.758 -2.156,-2.012 -0.266,-4.531 l 3.645,-4.864 c 2.644,-3.523 4.765,-5.996 5.847,-6.757 1.106,-0.743 2.043,-0.957 4.454,0.195 l 3.949,1.914 c 0.816,-0.039 1.883,-1.465 1.551,-2.246 -2.012,-1.504 -5.54,-3.633 -8.719,-6.016 -3.031,-2.273 -5.957,-5 -7.805,-6.386 -0.84,-0.098 -1.902,1.328 -1.726,2.128 l 2.71,3.204 c 1.25,1.464 2.075,2.988 1.235,4.98 -0.547,1.426 -1.977,3.516 -4.438,6.777 l -3.64,4.871 c -1.895,2.512 -2.16,2.707 -4.344,1.067 l -11.84,-8.875 c -4.433,-3.332 -7.098,-5.735 -7.516,-8.149 -0.253,-1.765 0.145,-4.207 5.692,-11.597 4.851,-6.457 7.004,-8.633 9.316,-9.797 1.973,-0.879 6.614,-0.938 12.61,0.156 0.855,-0.273 1.48,-1.621 0.996,-2.539 -3.379,-1.609 -11.418,-4.363 -14.504,-4.973 -5.496,7.668 -11.027,15.207 -16.629,22.668 l -5.656,7.547 c -2.715,3.606 -4.942,6.399 -8.828,11.223 -0.118,0.684 1.093,1.875 1.972,1.738 l 2.332,-2.578 c 4.016,-4.465 5.586,-3.945 14.399,2.676 l 30.191,22.656"
         style="fill:#000000;fill-opacity:1;fill-rule:nonzero;stroke:none"
         id="path4191"
         inkscape:connector-curvature="0" /><path
         d="m 319.031,288.293 c 5.891,8.035 6.692,9.656 3.528,12.625 l -2.454,2.324 c -0.292,0.86 0.708,2.199 1.633,2.051 5.047,-3.059 11.067,-7.07 19.367,-13.145 5.243,-3.828 9.93,-7.918 12.262,-12.89 2.524,-5.078 2.696,-11.055 -1.637,-16.973 -5.878,-8.047 -15.453,-7.801 -20.929,-6.406 -0.789,-0.188 -0.988,-1.348 -1.067,-2.324 -1.211,-15.879 -1.687,-25.926 0.539,-34.969 0.497,-2.316 1.946,-4.797 4.102,-6.652 0.305,-0.469 -0.105,-1.211 -0.781,-1.25 -0.949,0.312 -2.434,1.132 -4.031,2.312 -7.2,5.266 -9.961,10.539 -9.719,23.488 0.097,4.746 0.898,13.125 1.062,18.848 0.102,2.793 -0.64,4.629 -4.019,7.109 -3.813,2.786 -4.043,2.832 -5.344,1.043 l -7.805,-10.652 c -6.511,-8.887 -7.09,-10.039 -2.675,-14.297 l 1.601,-1.562 c 0.195,-0.801 -1.031,-2.11 -1.719,-1.993 -3.687,2.961 -6.504,5.157 -9.882,7.629 -3.551,2.606 -6.668,4.754 -10.77,7.489 -0.32,0.625 0.437,2.031 1.379,2.246 l 2.305,-1.289 c 5.339,-3.008 6.316,-2.032 12.808,6.855 l 22.246,30.383 z m -1.914,-17.18 c -1.109,-1.535 -1.797,-2.461 -1.797,-2.988 0.078,-0.43 1.211,-1.531 5.539,-4.707 3.047,-2.227 6.504,-4.238 10.325,-4.18 3.582,0.117 7.695,1.653 11.914,7.403 4.898,6.699 5.386,16.074 -4.004,22.949 -5.239,3.828 -5.742,3.691 -7.485,1.328 l -14.492,-19.805"
         style="fill:#000000;fill-opacity:1;fill-rule:nonzero;stroke:none"
         id="path4193"
         inkscape:connector-curvature="0" /><path
         d="m 425.293,187.793 c -1.309,-3.992 -1.484,-6.582 0.078,-7.871 0.195,-0.399 0,-0.996 -0.5,-1.16 -1.187,0.398 -3.113,0.586 -5.164,0.703 -5.742,0.332 -13.32,1.492 -18.699,3.25 -11.86,3.887 -21.633,10.742 -26.77,21.035 -4.023,7.941 -4.629,16.855 -1.758,25.625 2.774,8.469 8.379,16.133 16.719,20.676 8.965,4.793 20.371,6.238 35.41,1.316 5.684,-1.863 10.606,-4.695 12.168,-5.644 1.758,-1.016 4.629,-2.735 5.891,-2.93 -1.086,-3.281 -2.18,-8.672 -3.242,-14.941 -0.559,-0.704 -2.395,-0.215 -2.785,0.586 0.73,11.679 -5.633,17.519 -15.801,20.847 -19.336,6.34 -32.317,-4.637 -37.207,-19.59 -6.278,-19.136 -1.348,-37.422 18.691,-43.972 6.172,-2.032 10.293,-1.953 11.934,-0.614 0.73,0.536 1.816,2.164 2.859,5.36 l 1.321,3.972 c 2.734,8.372 2.636,9.075 -3.321,11.789 l -4.219,1.954 c -0.664,0.644 0.02,2.414 0.821,2.48 2.824,-1.141 8.269,-3.035 14.148,-4.961 3.891,-1.277 7.309,-2.285 10.664,-3.164 0.571,-0.644 0.18,-2.168 -0.711,-2.539 l -1.66,0.332 c -4.355,0.879 -5.371,-1.887 -7.031,-6.973 l -1.836,-5.566"
         style="fill:#000000;fill-opacity:1;fill-rule:nonzero;stroke:none"
         id="path4195"
         inkscape:connector-curvature="0" /><path
         d="m 478.313,223.984 c 0.027,10.899 -0.188,12.481 -6.379,13.223 l -1.661,0.215 c -0.632,0.422 -0.429,2.312 0.215,2.617 4.5,-0.215 8.067,-0.332 12.364,-0.332 l 19.726,-0.039 c 6.707,-0.02 12.91,-0.02 14.16,0.281 0.625,-1.785 1.231,-9.336 1.653,-13.941 -0.43,-0.637 -2.102,-0.852 -2.629,-0.215 -1.563,4.941 -2.5,8.602 -7.949,9.98 -2.208,0.536 -5.567,0.645 -10.176,0.653 l -7.559,0.019 c -3.144,0 -3.144,-0.215 -3.144,-4.199 l -0.047,-20.976 c -0.012,-2.93 0.308,-2.942 3.465,-2.942 l 6.074,-0.008 c 4.414,-0.019 7.656,0.196 8.906,0.606 1.27,0.422 2.004,1.054 2.527,3.672 l 0.852,4.297 c 0.527,0.625 2.312,0.625 2.734,-0.11 -0.019,-2.527 -0.437,-6.609 -0.437,-10.594 -0.012,-3.781 0.398,-7.753 0.398,-10.07 -0.429,-0.73 -2.207,-0.73 -2.734,-0.086 l -0.938,4.082 c -0.41,1.895 -1.132,3.457 -3.23,3.985 -1.477,0.429 -3.996,0.539 -8.078,0.546 l -6.094,0.02 c -3.144,0 -3.457,-0.098 -3.457,-2.832 l -0.039,-14.785 c -0.012,-5.567 0.305,-9.121 1.973,-10.918 1.257,-1.25 3.457,-2.41 12.695,-2.442 8.066,0 11.113,0.403 13.43,1.563 1.882,1.035 4.714,4.695 7.449,10.156 0.742,0.52 2.207,0.195 2.629,-0.742 -0.735,-3.672 -3.391,-11.738 -4.739,-14.57 -9.453,0.234 -18.769,0.351 -28.117,0.371 l -9.441,0.019 c -4.5,0 -8.067,-0.09 -14.258,-0.293 -0.625,0.325 -0.84,2 -0.215,2.618 l 3.469,0.312 c 5.977,0.508 6.512,2.09 6.531,13.105 l 0.071,37.754"
         style="fill:#000000;fill-opacity:1;fill-rule:nonzero;stroke:none"
         id="path4197"
         inkscape:connector-curvature="0" /><path
         d="m 621.746,241.113 c -1.68,4.512 -6.414,16.629 -6.07,20.782 0.105,0.949 1.773,2.46 4.734,4.121 l 1.309,0.703 c 0.371,0.82 -0.149,2.199 -1.114,2.402 -3.269,-1.453 -5.781,-2.5 -10.019,-4.082 -3.731,-1.387 -7.109,-2.527 -11.699,-4.023 -0.684,-0.586 -0.176,-2.207 0.722,-2.539 l 1.739,0.429 c 4.121,0.977 5.91,0.977 6.828,0.313 2.957,-2.246 7.82,-14.989 9.551,-19.61 l 7.839,-21.035 c 0.762,-2.058 1.348,-3.633 1.133,-4.277 l -0.183,-0.067 c -6.379,2.997 -13.246,6.708 -22.864,11.747 l -13.515,7.148 c -4.61,2.434 -21.028,11.094 -24.864,15.371 -1.203,-0.683 -2.851,-1.406 -4.414,-1.98 -1.765,-0.676 -6.972,-2.61 -11.211,-3.848 -0.625,-0.695 -0.078,-2.172 0.723,-2.531 l 1.738,0.422 c 2.469,0.586 5.079,0.769 6.985,-0.09 2.91,-1.485 3.758,-3.516 4.793,-6.27 l 10.586,-28.398 c 1.757,-4.727 6.32,-16.66 6.269,-20.723 -0.097,-1.25 -1.445,-2.441 -3.594,-3.574 l -2.546,-1.277 c -0.364,-0.813 0.242,-2.161 1.121,-2.395 3.359,1.484 5.976,2.578 10.097,4.102 3.645,1.367 7.118,2.539 11.621,3.996 0.508,0.75 0.157,1.961 -0.722,2.539 l -3.164,-0.852 c -2.52,-0.715 -4.707,-0.859 -5.711,0 -2.766,2.324 -7.629,15.071 -9.336,19.688 l -7.988,21.425 c -1.106,2.95 -1.848,5.247 -1.899,6.563 l 0.207,0.078 c 2.871,-1.387 12.551,-6.953 16.34,-9.023 l 32.469,-17.442 c 12.176,-6.543 16.308,-8.926 18.105,-10.156 1.082,0.41 1.485,1.133 1.465,1.777 -1.23,2.461 -5.598,14.153 -6.699,17.09 l -8.762,23.496"
         style="fill:#000000;fill-opacity:1;fill-rule:nonzero;stroke:none"
         id="path4199"
         inkscape:connector-curvature="0" /><path
         d="m 704.121,243.418 c -6.766,-5.645 -12.781,-7.129 -15.051,-7.52 -2.449,0.965 -8.257,5.821 -11.59,9.454 -0.058,0.918 1.004,2.082 1.739,1.867 4.629,-3.098 14.531,-8.235 23.867,-0.434 6.75,5.649 6.348,12.844 2.312,17.668 -2.957,3.535 -6.98,6.875 -16.011,5.742 l -11.821,-1.386 c -6.238,-0.723 -14.734,-0.02 -20.261,6.574 -6.375,7.644 -5.606,18.828 4.863,27.566 2.488,2.09 5.793,4.024 8.359,5.215 1.309,0.547 2.578,1.328 3.223,1.856 2.324,-1.309 6.816,-5.215 9.648,-8.602 0.079,-0.754 -1.003,-2.07 -1.796,-1.926 -4.278,2.988 -10.832,6.406 -18.555,-0.058 -7.891,-6.582 -5.215,-13.223 -2.109,-16.934 3.886,-4.668 10.585,-4.805 15.109,-4.18 l 9.793,1.368 c 7.695,1.093 16.582,0.585 22.976,-7.051 7.395,-8.848 5.754,-20.481 -4.695,-29.219"
         style="fill:#000000;fill-opacity:1;fill-rule:nonzero;stroke:none"
         id="path4201"
         inkscape:connector-curvature="0" /><path
         d="m 715.637,334.883 c -9.074,6.445 -10.637,7.305 -14.66,2.558 l -1.68,-2.011 c -0.723,-0.262 -2.129,0.996 -2.012,1.687 3.203,4.153 5.352,7.004 7.903,10.598 2.441,3.418 4.421,6.379 7.292,10.769 0.618,0.332 2.286,-0.593 2.266,-1.343 l -1.367,-2.258 c -3.152,-5.352 -1.816,-6.563 7.226,-12.996 l 30.43,-21.653 c 9.063,-6.445 10.371,-7.129 14.551,-2.5 l 1.797,1.954 c 0.703,0.253 2.109,-0.997 2.012,-1.7 -3.223,-4.148 -5.372,-6.992 -7.801,-10.41 -2.551,-3.594 -4.543,-6.562 -7.414,-10.957 -0.617,-0.332 -2.11,0.469 -2.246,1.348 l 1.257,2.324 c 2.993,5.469 1.926,6.492 -7.136,12.93 l -30.418,21.66"
         style="fill:#000000;fill-opacity:1;fill-rule:nonzero;stroke:none"
         id="path4203"
         inkscape:connector-curvature="0" /><path
         d="m 801.816,379.082 c -3.086,-8.23 -7.605,-12.48 -9.375,-13.945 -2.617,-0.364 -10.058,0.976 -14.746,2.511 -0.507,0.75 -0.144,2.293 0.586,2.469 5.559,-0.41 16.699,0 20.965,11.406 3.098,8.243 -0.789,14.29 -6.68,16.504 -4.324,1.621 -9.461,2.539 -16.765,-2.89 l -9.59,-7.051 c -5.078,-3.691 -12.832,-7.297 -20.879,-4.27 -9.316,3.508 -14.16,13.606 -9.375,26.372 1.152,3.035 3.066,6.355 4.707,8.64 0.867,1.133 1.582,2.442 1.887,3.235 2.683,-0.012 8.512,-1.196 12.637,-2.727 0.437,-0.625 0.144,-2.305 -0.618,-2.578 -5.195,0.488 -12.578,0.234 -16.113,-9.199 -3.613,-9.61 1.992,-14.075 6.504,-15.762 5.703,-2.149 11.594,1.023 15.215,3.808 l 7.851,6.016 c 6.161,4.746 14.141,8.711 23.465,5.203 10.813,-4.051 15.117,-14.969 10.324,-27.742"
         style="fill:#000000;fill-opacity:1;fill-rule:nonzero;stroke:none"
         id="path4205"
         inkscape:connector-curvature="0" /><path
         d="m 496.074,850.395 c -195.703,0 -354.336,-158.633 -354.336,-354.329 0,-195.695 158.633,-354.328 354.336,-354.328 195.696,0 354.324,158.633 354.324,354.328 0,195.696 -158.628,354.329 -354.324,354.329 z m 0,-697.993 c -189.797,0 -343.672,153.868 -343.672,343.664 0,189.789 153.875,343.637 343.672,343.637 189.785,0 343.633,-153.848 343.633,-343.637 0,-189.796 -153.848,-343.664 -343.633,-343.664"
         style="fill:#000000;fill-opacity:1;fill-rule:nonzero;stroke:none"
         id="path4207"
         inkscape:connector-curvature="0" /><path
         d="m 579.551,324.211 c -7.051,-5.383 -11.758,-13.457 -14.766,-20.129 6.504,-4.707 21.746,-11.57 47.383,-15.957 11.211,6.238 19.961,11.887 30,19.695 -9.141,2.317 -17.996,7.239 -23.555,10.414 -11.308,6.454 -25.332,16.485 -39.062,5.977"
         style="fill:#000000;fill-opacity:1;fill-rule:nonzero;stroke:none"
         id="path4209"
         inkscape:connector-curvature="0" /><path
         d="m 414.082,371.27 c -8.672,2.382 -13.34,2.296 -26.223,-1.895 -22.339,-7.266 -56.754,-45.762 -56.754,-45.762 10.333,-9.883 21.598,-18.808 33.602,-26.718 9.57,12.48 35.371,41.296 59.07,41.296 12.981,0 19.68,-5.457 30.493,-12.058 0.859,1.347 1.835,2.695 2.878,4.082 -19.433,9.621 -43.066,41.055 -43.066,41.055"
         style="fill:#000000;fill-opacity:1;fill-rule:nonzero;stroke:none"
         id="path4211"
         inkscape:connector-curvature="0" /><path
         d="m 489.492,337.551 c -10.508,-1.379 -18.191,-10.363 -23.293,-19.153 20.012,-13.535 37.785,-29.531 63.84,-37.277 20.293,-6.043 28.074,-8.328 48.777,-8.672 9.153,3.41 17.981,7.434 26.582,11.848 -12.761,1.543 -29.578,7.781 -44.011,14.492 -23.438,10.899 -50.481,41.57 -71.895,38.762"
         style="fill:#000000;fill-opacity:1;fill-rule:nonzero;stroke:none"
         id="path4213"
         inkscape:connector-curvature="0" /><path
         d="m 428.398,325.398 c -29.746,0 -41.511,-24.871 -51.21,-36.003 35.039,-20.204 75.527,-31.973 118.886,-31.973 22.793,0 44.746,3.406 65.645,9.355 -13.367,0.789 -29.61,4.219 -44.258,9.981 -32.676,12.89 -67.742,48.64 -89.063,48.64"
         style="fill:#000000;fill-opacity:1;fill-rule:nonzero;stroke:none"
         id="path4215"
         inkscape:connector-curvature="0" /><path
         d="m 640.645,345.664 c -19.766,25.215 -35.372,29.883 -42.989,27.969 -7.617,-1.903 -5.91,-7.664 -15.058,-18.477 -8.328,-9.843 -27.41,-20.722 -31.121,-23.398 3.074,-3.262 7.332,-8.125 8.406,-9.285 9.453,8.757 21.523,17.078 33.398,17.078 21.192,0 27.149,-16.77 55.157,-26.797 5.976,4.863 11.796,9.934 17.226,15.43 0,0 -13.34,2.578 -25.019,17.48"
         style="fill:#000000;fill-opacity:1;fill-rule:nonzero;stroke:none"
         id="path4217"
         inkscape:connector-curvature="0" /><path
         d="m 594.414,551.301 c -0.703,1.07 0.059,2.883 -0.859,3.879 -0.879,4.289 -2.688,8.175 -2.617,12.91 -0.586,2.789 2.343,4.078 4.082,5.312 1.101,2.621 1.015,5.602 -0.247,8.153 -0.886,4.187 -6.746,4.906 -6.746,9.5 -0.175,3.476 -2.468,6 -1.855,9.812 -1.543,5.051 -1.492,10.555 -1.875,15.934 -1.359,5.812 -1.238,11.672 -1.942,17.816 -0.968,7.242 -1.925,14.461 -3.605,21.321 -0.859,6.191 -2.891,11.91 -6.008,17.074 -0.476,3.84 -4.265,6.769 -2.32,11.054 3.418,4.766 6.226,9.957 8.133,15.438 1.679,3.168 1.418,7.074 2.207,10.598 -0.254,3.023 0.769,6.168 -0.274,8.882 -0.527,0.43 -1.035,-0.117 -1.394,-0.332 -1.496,-5.023 -6.985,-7.125 -10.656,-10.195 -5.508,-2.309 -12.422,-1.406 -18.633,-2.117 -4.141,0.262 -7.442,-3.692 -11.524,-1.313 -2.043,1.5 -4.433,2.098 -6.543,3.289 -4.824,0.305 -9.707,-0.074 -14.082,0.332 -6.965,-0.359 -12.273,3.547 -19.226,3.192 -8.606,0.332 -16.028,-4.024 -25.032,-3.262 -7.988,2.047 -15.82,-1 -22.246,-4.308 -2.461,0.449 -4.961,1.851 -7.558,2.308 -6.973,2.738 -15.574,-2.101 -21.465,3.426 -2.656,2.883 -4.609,6.148 -4.524,10.078 -1.082,-0.617 -1.636,-2.051 -1.902,-3.242 -1.543,-2.781 -2.793,-5.926 -3.183,-9.285 -0.774,-4.239 0.39,-8.817 1.335,-12.844 0.657,-7.168 5.649,-12.813 4.543,-20.41 -1.23,-3.426 -2.761,-6.813 -3.769,-10.41 -2.93,-3.5 -2.266,-8.36 -3.086,-12.621 -2.656,-8.004 -0.645,-16.247 -0.242,-24.606 -2.981,-9.574 -4.367,-19.695 -5.473,-29.965 -0.848,-6.695 -0.39,-13.933 -3.035,-19.961 -3.594,-3.57 -6.672,-7.242 -5.547,-12.527 0.383,-2.742 1.856,-4.91 3.184,-7.172 0.742,-5.402 0.527,-10.598 0.175,-15.93 0.43,-4.363 -4.05,-5.695 -4.765,-9.41 -0.918,-3.672 1.738,-6.097 4.043,-8.48 1.406,-2.336 0.762,-5.598 1.504,-8.242 0.644,-6.739 1.953,-13.36 2.597,-19.864 1.778,-9.742 2.754,-19.937 4.817,-29.273 2.183,-11.504 4.898,-22.774 8.047,-33.801 3.504,-7.957 5.379,-16.648 8.457,-24.793 2.195,-6.738 6.16,-12.629 6.101,-20.344 0.352,-0.855 0.403,-1.589 0.567,-2.379 0.41,-4.668 -3.575,-8.39 -3.196,-13.273 0,0 14.621,-25.527 31.946,-36.633 7.05,7.961 16.914,15.227 29.582,15.031 20.965,-0.312 40.164,-21.484 60.398,-36.543 1.438,1.602 3.027,3.293 4.727,5.032 -6.621,9.363 -35.586,42.898 -59.981,46.785 0,0 1.887,4.824 -0.383,7.051 -1.851,2.656 -1.621,4.707 -2.378,7.812 -0.122,1.465 -0.715,3.516 0.378,4.738 3.653,-0.793 5.247,-4.738 6.954,-7.511 0.261,-0.157 0.566,-0.254 0.839,-0.215 0.286,0.058 0.547,0.215 0.711,0.574 0.493,3.645 4.504,5.91 7.27,7.629 0.574,0.313 1.473,0.117 1.707,-0.625 0.644,-3.977 -0.313,-9.121 2.598,-12.285 0.937,-1.238 -0.215,-2.461 -0.86,-3.438 -0.305,-2.539 -2.441,-2.402 -2.441,-2.402 18.125,-8.523 28.105,-19.055 38.359,-31.23 6.836,4.726 31.543,20.625 31.211,37.187 -0.117,5.481 -2.976,4.805 -4.316,7.734 -2.285,1.934 -4.004,4.485 -5.332,7.032 -2.664,5.332 -4.786,11.269 -3.711,17.89 1.855,4.805 2.05,10.293 4.14,15.032 2.696,8.972 4.715,18.308 7.481,27.273 3.262,12.402 6.601,24.746 8.281,37.75 1.797,4.285 1.648,9.242 2.559,13.859 1.777,4.43 0.879,9.911 1.992,14.602 0.566,3.648 0,7.695 1.601,10.863 0.547,1.809 -0.117,4.074 0.957,5.668 -0.39,2.883 2.735,2.387 3.399,4.836 2.422,0.883 2.558,3.574 3.625,5.453 0.515,4.621 -3.274,7.598 -5.676,11.102 z m -11.777,35.039 c 1.609,-0.789 4.109,-0.715 4.629,-2.742 2.422,-0.762 1.98,-3.426 3.476,-4.883 0.098,-1.281 0.071,-2.813 -1.054,-3.36 -3.614,-0.496 -7,1.907 -9.2,4.481 -0.84,2.309 1.153,4.574 2.149,6.504 z m -20.918,-48.738 c -0.489,-6.075 -0.149,-12.504 -0.879,-18.481 -0.664,-0.687 -0.027,-1.902 -0.371,-2.738 -1.184,-6.145 -0.242,-12.555 -1.399,-18.695 l -0.757,-0.051 c -2.266,2.523 -6.926,3.523 -6.809,7.504 2.559,10.382 2.285,22.101 3.016,32.988 1.308,8.98 1.027,18.555 0.46,27.676 0.208,0.265 0.118,0.761 0.579,0.789 2.82,-0.906 4.121,-3.813 6.589,-5.406 0.313,-7.981 -1.054,-15.461 -0.429,-23.586 z M 425.137,616.23 c -2.735,0.075 -2.754,3.309 -3.555,5.172 -0.73,1.192 -0.762,2.641 -0.742,4.141 0.957,1.023 1.379,1.859 1.348,3.219 -1.004,0.734 -2.735,0.215 -3.086,1.879 0.007,2.191 -0.684,4.98 1.562,6.097 2.305,1.192 5.496,0.453 7.566,2.094 0.286,0.406 -0.183,1.004 -0.632,0.977 -2.813,0.148 -4.883,-1.118 -7.285,-1.664 -0.918,0.429 -0.801,1.359 -1.192,2.027 -0.051,6.57 -1.074,12.812 1.328,18.48 -0.41,1.192 -0.84,2.692 0.196,3.645 2.636,0.523 4.265,-3.527 6.796,-2.527 l 0,0.363 c -2.019,1.758 -3.515,3.832 -6.171,4.14 -1.426,2 -0.45,4.598 0.097,6.645 0.586,0.762 1.074,1.859 2.227,1.215 2.168,-1 3.183,-2.785 5.41,-3.856 0.605,0.473 0.937,1.239 0.703,1.856 -2.117,2.715 -7.512,3.457 -5.137,7.933 0.469,1.598 1.387,3.809 3.047,4.239 2.129,-0.621 3.242,-3.071 5.196,-4.313 l 0.507,0.313 c -1.718,1.691 -2.675,3.859 -2.16,6.383 1.406,1.234 2.746,-0.668 4.055,-1.168 l 2.129,-0.547 c 2.07,-1.141 4.687,-2.36 4.765,-5.145 1.739,-2.523 2.266,-5.527 4.688,-7.719 0.664,-1.742 2.051,-2.742 3.008,-4.382 -0.664,-0.692 -1.641,-0.739 -2.481,-0.356 -2.39,1.5 -3.398,4.262 -5.039,6.332 -0.605,0.289 -0.898,-0.496 -1.113,-0.785 0.762,-2.262 1.277,-4.645 2.93,-6.5 l 0.039,-1.57 c -3.457,-0.336 -6.504,2.738 -8.633,5.476 -0.469,0.36 -1.153,0.641 -1.746,0.235 -0.969,-0.547 -0.188,-1.59 -0.071,-2.332 1.653,-2.594 3.118,-5.883 6.25,-7.219 0.625,-0.496 0.957,-1.621 0.379,-2.332 -0.398,-1.598 -1.941,-1.047 -2.996,-0.762 -1.941,1.738 -4.199,3.574 -5.918,5.262 l -0.976,-0.024 c -0.188,-1.547 1.523,-2.523 2.226,-3.785 1.602,-2.695 6.446,-2.695 5.34,-6.504 -0.359,-0.691 -0.176,-1.668 -1.062,-2 -5.098,0.692 -11.954,2.524 -16.141,-1.621 -0.129,-0.547 0.27,-1.211 0.867,-1.191 4.61,0.312 8.926,-0.332 12.551,-2.715 0.789,-0.813 1.727,-1.832 1.375,-2.977 -0.731,-0.476 -1.797,-0.355 -2.539,-0.832 -1.465,-1.336 -3.184,-2.07 -4.727,-3.41 0,-0.281 0.078,-0.594 0.391,-0.734 2.324,0.902 4.551,2.094 6.941,3.094 0.825,0.168 1.582,-0.192 1.914,-0.926 -0.046,-1.219 -1.394,-1.336 -2.214,-1.953 -1.747,-2.121 -5.11,-3.481 -5.176,-6.289 l 0.762,0.023 c 3.308,0.477 4.832,5.285 8.496,4.402 0.527,-0.496 1.25,-1.472 0.586,-2.164 -4.305,-2.621 -9.981,-5.144 -10.567,-10.91 0.09,-0.383 -0.129,-0.832 0.188,-1.047 1.218,-0.047 1.089,1.332 1.836,1.953 3.535,2.981 6.836,6.383 11.511,6.692 0.45,-0.145 1.055,-0.211 1.453,-0.715 -0.066,-2.402 -3.511,-3.809 -3.511,-6.383 -0.547,-1.902 -1.164,-3.812 -2.102,-5.64 0.098,-0.481 0.703,-0.598 0.996,-0.29 2.168,3.477 4.063,8.43 8.321,9.696 -0.04,-1.215 1.296,-0.262 1.843,-0.762 2.278,-0.402 4.582,-1.312 6.438,-2.695 -0.391,-4.758 -2.188,-10.574 0.293,-14.813 0.871,0.785 0.078,2.215 0.508,3.192 0.195,3.574 2.382,6.359 2.793,9.859 0.351,1.051 1.562,1.313 2.48,1.027 1.902,-0.761 1.973,-3.097 3.816,-4.023 1.465,1.473 -0.418,3.547 0.286,5.453 0.644,1.164 2.246,1.043 3.378,0.688 0.469,-0.356 1.004,-0.473 1.622,-0.407 0.566,0.621 0.402,1.547 0.371,2.36 2.429,1.886 3.222,5.859 6.562,5.05 l 0.723,-0.808 c -0.086,-2.356 -0.313,-4.695 -0.781,-6.906 -0.918,0.047 -1.414,2 -2.61,1.214 -0.879,-0.812 -0.476,-1.835 -0.066,-2.742 1.047,-2.074 1.933,-4.242 3.066,-6.238 0.086,-0.621 0.723,-1.43 0.059,-1.977 -2.578,-0.168 -3.711,2.524 -5.117,4 -0.926,0.641 -1.575,-0.332 -1.7,-1.121 -0.507,-3.406 1.836,-5.976 4.395,-8.027 0.984,0.051 1.601,-0.547 2.305,-1.215 -0.274,-1.215 -1.375,-2.07 -0.215,-3.168 l 1.277,-1.781 c -1.402,-1.242 -3.262,0.113 -4.793,0.547 -3.457,2.14 -6.433,5.691 -7.168,9.668 -0.234,0.476 -0.918,0.594 -1.289,0.262 -1.133,-2.598 0.313,-5.192 1.504,-7.266 1.699,-1.168 3.496,-3.004 3.027,-5.215 -0.586,-0.859 -1.933,-1.266 -3,-0.902 -2.859,2.379 -3.113,5.953 -3.457,9.476 -0.379,0.141 -0.769,0.524 -1.14,0.117 -0.625,-1.546 -0.567,-3.57 -0.528,-5.238 -0.398,-1.5 0.567,-3.621 -0.605,-4.859 -1.777,-1.028 -4.297,-0.192 -6.231,-0.93 -2.382,0.906 -2.168,3.859 -2.246,6.289 -0.39,0.664 -1.054,0.117 -1.425,-0.187 -2.227,-1.215 -1.79,-5.957 -5.457,-4.504 -2.317,1.383 -4.915,2.285 -6.711,4.57 -1.219,2.84 1.894,4.453 1.894,6.934 0.781,2.07 3.234,3.504 3.621,5.715 -1.465,0.789 -2.547,-1.145 -3.719,-1.997 -1.953,-2.789 -3.613,-5.863 -4.882,-8.765 -0.274,-0.762 -1.036,-1.168 -1.868,-1.051 -3.418,3.004 -9.968,4.691 -8.933,10.48 0.73,1.075 1.379,2.141 1.797,3.383 -1.465,1.094 -1.934,-0.976 -3.125,-1.383 z m 70.031,-10.742 c 0.379,-0.289 0.66,-0.289 1.121,-0.093 1.133,2.5 0.828,5.597 1.191,8.476 0.469,6.91 1.231,13.746 2.254,20.484 0.5,0.934 0.286,2.504 1.672,2.622 2.051,-0.454 4.551,-0.692 5.528,-2.856 0.8,-9.195 0.019,-18.578 -2.532,-26.918 -1.238,-4.191 -4.089,-7.359 -6.238,-11.219 -1.172,-1.312 -1.476,-3.664 -3.594,-3.953 -5.976,8.434 -9.765,17.934 -10.078,28.965 0.098,4.07 -2.48,9.602 1.055,12.649 2.617,0.972 4.734,3.617 7.683,3.382 l 0.403,-1.125 c 0.976,-9.929 -1.641,-20.672 1.535,-30.414 z m 25.992,-28.867 c -4.988,2.477 -9.597,7.332 -10.144,12.91 0.293,0.621 1.054,0.641 1.445,0.426 l 4.98,-4.687 c 3.614,-2.317 8.379,-4.668 10.137,-8.938 0.293,-1.426 0.567,-3.449 -0.683,-4.336 -1.668,-2.07 -4.063,-3.211 -6.797,-2.594 -5.02,0.598 -9.59,4.528 -11.934,9.075 -0.84,3.382 -0.957,7.074 0.391,10.218 1.66,0.051 0.73,-1.879 1.523,-2.664 2.461,-4.172 5.867,-9.578 10.977,-10.867 0.508,0.457 0.422,0.934 0.105,1.457 z m -2.168,46.852 c -1.023,-1.028 -2.129,-2.028 -3.406,-2.528 -0.652,1.715 0.586,3.504 1.457,5.028 0.059,0.453 0.418,0.859 0.242,1.429 -0.691,0.762 -2.265,0.262 -2.148,1.692 -0.176,0.734 0.176,1.379 0.449,1.906 l 1.602,0.047 c 2.48,-2.121 5.285,-4.598 7.695,-6.813 0.215,-2.168 0.117,-4.074 -0.879,-6.074 -0.156,-2.336 -1.777,-4.121 -2.383,-6.265 0.242,-0.524 0.852,-0.641 1.277,-0.332 2.27,2.929 3.301,6.457 5.793,9.171 2.774,0.618 5.977,-0.214 8.907,0.403 2.148,-1.141 0.742,-4.188 2.129,-5.809 0.429,-1.43 -0.118,-3.41 1.191,-4.289 1.953,0.285 1.516,2.691 2.156,4 0.754,2.672 0.305,4.766 0.071,7.574 -0.469,0.5 -0.098,1.121 -0.04,1.719 0.645,0.641 1.766,0.977 2.54,0.379 1.71,-1 3.203,-3.523 4.98,-4.766 0.527,0.481 0.273,1.383 0.098,1.887 -0.352,2.262 -2.664,3.711 -3.196,5.809 0.051,0.832 1.02,1.336 1.711,0.879 2.293,-0.829 1.465,-3.575 3.328,-4.883 0.832,0.265 0.403,1.457 0.247,1.976 -0.833,2.028 -1.797,3.957 -1.954,6.289 0.52,1.071 1.524,0.192 2.286,0.215 2.617,-1.187 5.351,-2.238 7.753,-4.07 2.872,-2.406 3.36,-6.172 4.278,-9.242 -0.586,-3.047 1.738,-6.739 -1.016,-8.864 -2.226,-0.761 -3.769,-3.144 -6.094,-3.668 -0.996,0.879 -0.82,2.313 -1.535,3.262 -1.797,2.074 -2.703,6.742 -6.433,5.719 -1.465,-1.477 0.761,-3.168 1.269,-4.719 0.235,-2.879 3.36,-6.023 0.711,-8.597 -3.074,1.48 -4.058,-3.094 -7.117,-1.805 -3.379,1.019 -6.438,-4.957 -9.063,-0.43 0.247,4.164 -0.261,8.309 -0.753,12.621 -0.497,1.266 -0.86,3.121 -2.293,3.528 -1.497,-1.145 -0.293,-3.407 -0.848,-4.934 -0.258,-3.855 -1.289,-7.5 -3,-10.809 -0.879,-0.933 -1.992,-1.718 -3.359,-1.242 -0.313,0.141 -0.547,0.43 -0.782,0.668 -0.215,2.024 0.547,4.238 1.094,6.219 -0.312,0.519 -1.055,0.355 -1.437,0.113 -2.196,-2.547 -4.942,-6.711 -9.122,-6.023 -0.535,0.523 -1.453,0.785 -1.628,1.383 1.21,2.168 4.035,3.906 3.82,6.406 -1.977,0.097 -3.195,-2.219 -5.063,-2.574 -1.062,7.429 6.465,11.078 7.473,17.984 -0.312,0.215 -0.547,0.57 -1.008,0.43 z m -0.047,32.797 c 3.047,4.335 7.95,5.218 12.578,6.429 5.293,-0.304 10.696,-0.664 14.239,-5.312 3.554,-4.977 5.285,-12.332 2.968,-18.289 -3.125,-6.383 -9.289,-10.719 -16.464,-10.86 -2.774,-0.761 -5.391,0.739 -7.911,1.664 -3.906,1.762 -5.312,5.719 -7.46,8.836 -1.766,6.004 -0.586,12.457 2.05,17.532 z m 52.118,-79.747 c 0.363,0.454 1.039,1 1.71,1.332 1.739,0.051 3.184,-0.496 4.629,-1.14 1.114,-1.953 1.59,-4.953 0.586,-7.027 -2.812,-1.215 -5.215,0.378 -7.168,2.144 -0.8,1.691 0.899,3.051 0.243,4.691 z m 2.199,3.36 c -3.418,0.644 -5.711,3.832 -7.84,6.504 -0.617,2.929 -3.027,4.957 -3.117,8.051 -0.34,1.808 -0.95,4.14 -0.313,5.761 l 0.293,0 c 2.481,-4.551 6.238,-8.5 9.688,-12.644 1.23,-1.094 3.203,-1.481 3.867,-3.047 -0.32,-1.77 -0.801,-3.817 -2.578,-4.625 z M 549.297,517.93 c -3.457,-0.856 -5.078,3.027 -7.93,4.386 -3.203,3.832 -6.433,8.192 -6.445,13.407 0.215,0.453 0.742,0.57 1.199,0.504 2.414,-2.747 4.348,-6.77 8.098,-7.938 0.539,-0.047 1.14,0.125 1.269,0.738 -0.547,3.004 -2.617,5.957 -1.711,9.004 2.2,-0.304 3.481,-2.832 5.539,-3.453 1.407,-1.476 0.872,-3.523 0.606,-5.285 -0.625,-3.645 0.547,-7.91 -0.625,-11.363 z m -1.035,-64.883 c 0.41,8.476 2.051,16.621 1.953,25.012 1.015,1.304 2.969,1.668 4.797,1.738 0.332,-1.223 0.027,-3.195 0.426,-4.621 0.246,-8.145 -1.407,-16.133 -0.704,-24.512 -0.125,-3.398 -1.238,-6.543 -1.121,-10.078 -0.554,-2.07 -0.625,-4.402 -0.937,-6.523 0.137,-6.973 -1.731,-13.079 -2.891,-19.454 -1.035,-1.386 -0.703,-4.336 -2.742,-4.218 -2.492,1.875 -1.066,4.863 -0.91,7.285 0.781,2.004 0.176,4.531 0.937,6.601 -0.84,10.02 2.239,18.672 1.192,28.77 z m -2.285,-58.399 c 1.699,-3.574 2.5,-7.558 3.449,-11.386 0.047,-1.953 0.769,-3.594 -0.539,-5 -4.715,0.683 -9.043,-1.336 -12.657,-3.867 -1.132,-0.332 -1.972,0.332 -2.597,0.976 -0.653,1.719 -0.195,3.789 -0.164,5.606 0.972,2.207 -0.254,5.5 1.902,6.933 1.035,0.918 3.145,0.781 3.242,2.656 -1.855,1.309 -5.195,-0.371 -6.269,2.247 -2.129,2.878 -4.348,6.21 -4.434,9.902 3.145,3.047 8.028,4.023 12.293,2.812 1.164,-0.566 2.539,-1.211 3.176,-2.48 1.348,-2.617 1.531,-5.711 2.598,-8.399 z m -7.325,-23.25 c 0.684,3.192 4.219,2.997 6.387,4.364 0.82,0.09 1.816,0.039 1.992,-0.938 -0.937,-6.14 -1.758,-12.461 -5.898,-17.402 -0.442,-0.559 -0.957,-1.008 -1.719,-0.891 -0.547,0.364 -0.43,1.196 -0.215,1.653 2.246,3.847 1.543,9.425 -0.547,13.214 z m -9.433,-10.531 c -3.875,1.008 -8.606,4.426 -9.492,8.625 -0.403,0.977 -1.036,2.09 -0.528,3.164 1.895,2.032 4.981,2.434 7.703,2.5 l 0.852,-0.957 c -0.547,-4.258 -1.953,-9.941 1.465,-13.332 z m -6.699,16.789 c -2.5,0.215 -3.848,-2.453 -6.125,-2.234 -1.485,1.707 -0.665,4.461 -1.61,6.316 -1.035,6.621 0.117,13.692 5.645,17.793 1.054,0.617 2.187,0.137 3.183,-0.215 2.032,-2.05 2.95,-4.812 4.375,-7.293 0.899,-1.859 2.45,-3.378 2.61,-5.675 1.132,-2.903 0.332,-6.258 -0.207,-9.063 -2.481,-0.359 -5.098,1.66 -7.871,0.371 z m -45.489,-9.648 c 1.641,1.406 4.473,2.656 6.629,1.34 1.789,-1.594 1.645,-4.27 1.699,-6.36 -2.066,-4.238 -5.972,-7.597 -10.156,-9.218 -0.379,0.046 -0.828,0.332 -1.004,0.722 -0.097,3.086 1.66,5.403 1.406,8.496 -0.886,2.032 0.508,3.496 1.426,5.02 z m 7.539,3.887 c -1.953,0.019 -3.652,0.808 -5.332,1.601 -2.05,0.371 -2.363,-2.051 -4.082,-2.558 -0.527,-0.403 -0.879,-1.165 -1.562,-1.25 -0.801,1.777 -0.645,4.042 -0.926,6.164 -1.125,2.234 -0.461,4.91 0.691,6.902 1.563,1.094 2.852,3.34 5.371,2.578 0.657,0.625 0.938,1.477 0.743,2.383 -0.938,1.23 -2.586,0.976 -3.868,0.715 -1.718,-0.813 -3.242,-2.356 -4.648,-3.547 -1.894,2.656 -1.777,6.211 -2.102,9.519 0.208,3.196 0.852,6.836 3.594,8.293 2.473,-1.211 5.864,-0.879 7.16,-3.957 3.711,-5.398 8.411,-10.476 8.985,-17.273 0.351,-3.992 0.859,-8.418 -1.231,-11.738 -1.086,0.644 -1.484,1.621 -2.793,2.168 z m -11.367,38.32 c -6.152,3.359 -7.246,9.922 -6.387,16.269 0.118,1.075 0.215,2.598 1.504,2.93 1.243,-0.879 0.899,-2.441 1.692,-3.496 3.426,-6.023 10.261,-9.531 14.5,-14.91 4.082,-2.387 5.664,-7.102 5.957,-11.77 0.644,-1.328 0.312,-3.093 -0.176,-4.316 -0.438,-0.156 -0.684,0.371 -0.996,0.586 -3.067,6.465 -9.219,12.402 -16.094,14.707 z m -28.918,174.004 c 2.18,0.523 2.942,2.668 4.641,3.855 1.621,1.621 2.91,3.86 4.746,5.719 0.976,0.191 1.894,-0.164 2.148,-1.074 0.313,-2.856 -1.125,-5 -1.66,-7.524 -2.851,-6.125 -6.515,-12.05 -13.664,-13.172 -2.039,-0.285 -3.719,0.571 -4.91,2.047 -0.078,2.621 -1.348,4.86 -0.977,7.434 0.371,5.312 3.875,9.359 6.778,13.672 0.801,0.855 2.746,1.976 3.457,0.406 -0.723,-3.336 -1.465,-6.621 -1.426,-10.246 0.234,-0.356 0.41,-0.828 0.867,-1.117 z m 15.11,-37.11 c 3.984,3.004 6.953,7.524 9.863,11.172 0.293,0.332 0.91,-0.121 1.008,-0.476 -0.012,-7.336 -4.289,-13.457 -8.735,-19.246 -2.691,-3.332 -7.566,-5.079 -12.039,-4.219 -3.347,0.504 -3.523,4.121 -4.812,6.433 -0.149,2.786 1.062,5.094 2.351,7.262 3.848,2.668 9.129,5.621 11.192,10.074 0.437,0.621 1.32,1.172 1.875,0.504 -0.157,-4.906 -2.91,-8.789 -4.676,-13.078 1.375,-0.617 2.703,0.856 3.973,1.574 z m 10.937,27.395 c 3.809,1.164 5.84,4.476 7.949,7.406 0,2.117 2.09,3.164 2.871,5.024 0.45,0.214 0.457,-0.309 0.684,-0.454 0,-7.476 -3.203,-14.246 -9.168,-18.937 -1.191,-0.879 -2.934,-0.852 -4.301,-0.664 -1.844,1.144 -4.668,1.832 -4.597,4.48 0.168,4.524 1.171,8.879 5.261,11.336 1.321,1.403 1.809,2.996 3.52,3.5 -0.442,-2.644 -1.106,-5.55 -1.633,-8.359 0.332,-1.356 -1.523,-2.238 -0.586,-3.332 z m 18.977,-69.172 c 0.234,-0.312 0.476,-0.668 0.925,-0.504 0.86,1.309 0.118,3.242 1.309,4.195 0.508,0.547 1.504,0.407 2.09,0.215 2.578,-2.429 1.347,-6.48 1.75,-9.48 -0.149,-3.481 -1.172,-6.531 -2.434,-9.528 0.625,-0.953 1.641,-0.167 2.403,0.067 2.531,3.723 2.382,8.48 3.242,12.891 0.261,0.906 0.019,2.121 0.761,2.734 0.594,0.172 1.055,-0.496 1.141,-0.949 0.102,-3.024 -0.496,-6.071 -0.262,-8.934 l 0.547,-0.281 c 3.074,3.64 1.387,9.336 3.223,13.621 0.832,2.383 0.137,5.238 0.898,7.598 1.602,-0.098 1.602,-2.45 2.012,-3.789 -0.176,-1.805 1.066,-2.997 1.563,-4.426 1.152,-10.223 3.836,-23.703 -5.879,-30.11 -3.438,-1.836 -7.598,-1.425 -10.918,0.196 -3.067,1.425 -3.594,4.519 -5.188,6.879 -1.836,5.761 -4.449,12.027 -2.742,18.605 1.172,6.215 1.648,12.672 5.059,18.051 0.617,-0.496 0.183,-1.715 0.214,-2.547 -0.144,-4.93 -1.289,-9.719 0.286,-14.504 z m 29.05,20.699 c -1.347,2.383 -1.054,5.496 -1.66,8.262 0.313,2.051 1.653,-0.332 2.129,-0.902 2.149,-5.911 10.735,-7.411 11.231,-13.887 0.871,-1.649 0.879,-4.215 -0.286,-5.77 -2.117,-2.164 -5.347,-3.261 -8.679,-2.664 -4.903,1.953 -8.067,6.719 -11.524,10.528 -0.234,2.812 -2.566,5.144 -1.347,7.976 0.886,0.121 1.59,-0.711 2.136,-1.211 2.512,-3.265 5.704,-5.808 9.016,-8.191 0.598,0 1.355,-0.051 1.57,0.641 0.766,2.308 -2.136,3.265 -2.586,5.218 z m -4.98,-58.14 c -1.055,2.238 -3.965,3.664 -4.199,6.211 -0.11,0.91 -0.606,2.48 0.593,2.976 4.524,-1.824 8.704,-5.094 12.063,-9.09 1.367,-2.527 1.484,-6.601 -0.488,-8.769 -0.118,-1.289 -0.618,-2.598 -1.875,-3.321 -1.27,-0.632 -2.989,-0.847 -4.602,-0.585 -5.359,2.929 -8.262,8.742 -9.207,14.628 l 0.606,0 c 2.414,-1.738 2.785,-6.562 6.589,-5.39 0.911,0.722 0.852,2.219 0.52,3.34 z m 8.762,11.191 c -3.371,3.906 -5.918,8.219 -5.703,13.746 0.3,0.379 0.652,0.613 1.121,0.473 0.703,-0.879 0.644,-2.168 1.367,-3.121 1.113,-1.953 1.594,-5.313 4.629,-5.313 0.8,0.481 0.41,1.598 0.215,2.266 0,2.883 -2.266,5.457 -0.84,8.453 l 0.461,0 c 3.816,-3.949 8.543,-8.121 7.136,-14.141 -0.332,-1.679 -2.043,-2.629 -3.449,-3.203 -1.582,-0.215 -3.484,0.059 -4.937,0.84 z m -51.211,6.289 c 2.625,2.715 4.578,6.192 6.746,9.121 0.762,0.332 0.781,-0.429 1.172,-0.785 0.976,-7.523 -3.125,-14.461 -9.219,-18.121 -1.563,-0.82 -3.582,-1.074 -5.41,-0.84 -1.172,1.172 -1.746,2.598 -2.84,3.77 -0.617,5.64 0.574,11.355 4.605,15.168 1.621,1.644 1.789,3.621 3.567,5.023 2.304,-1.285 1.133,-4.953 1.347,-7.285 0,-2.715 -2.363,-4.453 -2.5,-7.102 0.848,-1.043 1.707,0.575 2.532,1.051 z m 5.437,-12.285 c 1.446,2.539 4.356,3.965 5.86,6.594 0.964,0.261 1.738,-0.317 2.214,-0.91 -0.007,-4.832 -2.832,-8.614 -5.371,-12.649 1.477,-1.141 2.473,1.223 4.133,0.813 3.106,2.429 3.067,6.367 5.332,9.238 0.891,0.266 1.524,-0.711 1.856,-1.375 3.214,-6.652 -1.368,-12.609 -4.473,-17.531 -1.934,-3.594 -6.199,-2.383 -9.355,-2.832 -1.758,0.371 -3.653,0.703 -4.239,2.734 -1.172,6.074 2.696,10.664 4.043,15.918 z m 8.75,57.828 c -0.461,-2.812 -1.433,-5.34 -1.887,-8.148 l -0.867,-1.004 c 0.84,-0.739 -0.097,-2.188 -0.215,-3.188 -1.191,-5.691 -5.964,-10.172 -11.523,-11.386 -1.98,0.308 -3.887,0.859 -5.508,2.027 -2.558,2.285 -1.933,6.453 -1.726,9.574 2.007,6.383 5.918,12.102 9.519,17.719 0.371,0.312 1.348,0.953 1.438,0.051 0.789,-5.645 -0.344,-10.891 -2.012,-15.793 -0.422,-1.141 0.144,-2.407 1.297,-2.977 2.019,0.664 2.48,3.168 4.023,4.43 l -0.019,0.832 c 2.363,4 4.668,8.078 5.586,12.625 0.285,0.617 0.886,0.5 1.425,0.523 1.329,-1.402 0.332,-3.48 0.469,-5.285 z m -30.234,30.918 c -2.195,-2.406 -4.785,-4.359 -8.211,-3.648 -0.832,0.261 -1.906,0.621 -2.16,1.523 -0.926,5.574 3.965,8.887 4.726,13.746 1.028,1.094 1.797,2.785 3.242,2.832 0.704,-3.379 -0.71,-6.383 -1.457,-9.504 1.079,-0.57 1.938,1.266 2.661,2.051 2.214,4.141 3.523,8.719 4.597,13.359 0.41,0.93 1.348,0.266 1.446,-0.406 1.054,-7.523 -1.25,-14.094 -4.844,-19.953 z m -11.172,-36.59 5.293,5.145 c 0.598,0.023 1.269,0.047 1.445,-0.617 0.781,-3.309 -0.859,-6.528 -1.98,-9.457 0.117,-1.43 -1.438,-2.836 -0.332,-4.028 1.582,0.215 2.586,2.074 3.601,3.168 2.266,2.906 4.141,6.172 7.09,8.363 0.293,0 0.606,-0.074 0.762,-0.359 -0.379,-4.836 -2.754,-8.934 -4.668,-13.219 -2.383,-3.691 -6.211,-7.215 -10.996,-6.383 l -1.16,1.094 c -0.403,5.289 -2.258,11.742 0.945,16.293 z m 16.875,-60.554 c 0.879,0.722 1.309,1.867 2.266,2.128 0.058,-1.882 -1.7,-3.457 -2.325,-5.363 -0.703,-2.066 -2.148,-3.855 -1.933,-6.258 0.859,-1.093 1.902,-0.246 2.715,0.235 2.363,1.718 3.75,3.957 5.711,6.074 0.316,-0.215 0.187,-0.762 0.187,-1.145 -0.359,-0.164 -0.273,-0.554 -0.273,-0.906 -2.071,-4.219 -4.305,-9.805 -9.571,-11.023 -1.797,-0.5 -3.554,-0.129 -4.804,1.277 -1.309,3.359 -0.293,7.481 1.738,10.098 2.383,1.679 3.574,4.199 6.289,4.883 z m -0.742,-38.274 c 0.5,-4.234 1.316,-8.738 -0.918,-12.351 -0.645,-1.004 -1.914,-1.797 -2.988,-1.075 -1.543,0.547 -1.727,2.356 -1.856,3.809 -0.273,4.316 -0.762,7.832 0.625,11.719 0.762,2.519 1.356,5.293 1.66,8.007 0.457,2.043 0.625,4.239 1.387,6.133 0.574,-1.328 0.41,-2.988 0.976,-4.336 0.879,-3.906 -0.664,-8.332 1.114,-11.906 z m -7.227,-29.961 c 0.977,2.453 1.875,4.914 4.246,6.574 1.067,2.461 3.977,1.309 5.825,2.364 1.628,-1.387 5.71,1.308 5.203,-2.032 -2.071,-4.004 -3.594,-8.593 -2.461,-13.379 -1.075,-2.246 -5.703,0.489 -4.746,-3.32 1.511,-2.695 4.785,-0.918 6.23,-3.515 0.625,-3.321 1.035,-6.797 1.516,-10.176 -0.129,-0.528 -0.825,-0.41 -1.047,-0.164 -2.559,1.883 -6.004,3.523 -9.207,1.765 -1.926,-1.054 -3.156,-3.222 -4.778,-4.765 -0.964,-0.547 -1.23,0.781 -1.484,1.406 -2.195,8.164 -1.269,17.48 0.703,25.242 z m 24.883,25.91 c -2.207,3.106 -2.996,6.867 -4.766,10.227 -0.468,3.523 -0.976,7.195 -0.007,10.574 0.339,0.899 0.398,2.117 1.355,2.754 l 0.391,-0.371 c -0.301,-7.793 5,-13.145 9.336,-18.848 3.269,-3.301 9.57,-4.304 9.062,-10.168 0,-2.547 1.758,-5.457 0.09,-7.761 -0.754,-0.047 -0.551,0.5 -1.008,0.878 -3.879,5.547 -9.551,8.321 -14.453,12.715 z m 15.098,9.317 c -3.614,4.199 -7.325,9.297 -5.071,15.039 0.266,3.879 1.743,7.617 4.993,10.039 0.656,0.937 0.156,2.578 1.503,2.93 0.625,-0.899 -0.41,-1.524 -0.539,-2.208 0.637,-3.906 2.864,-9.746 -0.75,-13.027 -0.046,-0.664 -0.019,-1.582 0.664,-1.855 3.809,-1.035 3.067,3.925 5.293,5.273 0.391,-3.086 -1.882,-5.644 -3.925,-7.832 0.332,-1.047 1.613,-1.074 2.461,-1.641 2.187,0.215 2.793,2.715 3.73,4.258 1.008,4.551 0.547,9.461 -2.051,13.184 0.176,1.277 -0.644,3.379 0.528,4.551 2.519,-0.243 3.73,-3.008 5.07,-4.7 1.785,-4.332 2.625,-9.675 1.101,-14.312 0.606,-4.621 -3.515,-5.715 -6.171,-8.676 -1.922,-1.023 -4.61,-2.234 -6.836,-1.023 z m 10.605,-9.239 c 0.32,1.907 1.797,3.094 2.735,4.551 1.601,4.524 4.433,8.77 6.64,12.813 1.68,2.336 0.977,5.476 2.188,7.949 1.355,-0.352 1.347,-2.227 1.992,-3.281 0.527,-5.332 0.613,-10.86 -1.289,-15.391 -3.301,-5.598 -7.52,-10.723 -10.391,-16.484 -1.172,-1.016 -0.976,-2.598 -1.609,-3.907 -2.485,4.18 -2.114,9.551 -0.266,13.75 z m 3.242,-19.726 c 0.606,4.726 3.731,8.508 5.508,12.656 3.633,4.707 5.977,10 7.852,15.43 0.261,1.14 -0.684,2.09 0.215,3.027 1.96,-2.949 2.695,-7.012 2.285,-10.957 0.156,-10.293 -10.789,-15.527 -12.254,-25.176 -1.164,-1.023 -2.043,-2.558 -2.766,-3.718 -1.504,2.382 -0.703,5.886 -0.84,8.738 z m 23.282,20.105 c 0.351,5.832 2.148,11.125 2.363,17.004 -0.254,0.91 0.976,2.383 1.269,0.664 1.075,-5.566 -0.117,-11.59 1.629,-16.875 -0.242,-3.886 0.715,-8.703 -2.683,-10.918 -1.426,-0.879 -2.508,0.547 -2.785,1.668 -1.368,2.981 0.91,5.383 0.207,8.457 z m 8.691,34.516 c -0.781,-1.477 -2.363,-1.738 -3.73,-1.406 -5.586,1.883 -7.813,8.308 -9.407,13.484 1.352,0.402 1.711,-1.621 2.934,-2.031 2.215,-0.547 3.094,-4.735 5.555,-3.477 -0.391,2.578 -3.086,4.082 -3.536,6.555 -0.312,1.043 -1.347,2.168 -0.769,3.23 1.433,-0.253 0.984,-2.375 2.644,-2.636 3.274,-0.742 5.871,-3.907 7.227,-6.817 1.144,-2.304 0.391,-4.98 -0.918,-6.902 z m -11.563,87.227 c -3.945,2.832 -4.902,7.332 -6.093,11.593 0.117,1.457 -0.547,3.168 0.312,4.336 0.672,0.168 0.703,-0.808 1.184,-1.258 2.332,-2.285 3.64,-5.933 6.805,-7.433 0.605,-0.571 0.644,-1.406 1.484,-1.903 0.781,-0.457 1.66,0.118 2.012,0.879 -0.039,1.356 -1.289,2.621 -2.149,3.809 -0.781,3.219 -4.238,5.457 -3.39,9.266 1.41,1.308 2.394,-1.379 3.761,-1.926 4.278,-1.481 9.942,-3.719 10.645,-8.981 0.215,-2.812 0.488,-6.644 -2.403,-8.55 -3.554,-2.075 -8.554,-1.622 -12.168,0.168 z m 12.032,29.652 c 1.074,-0.57 1.867,-1.836 2.949,-2.477 2.156,-1.836 3.906,-4.574 2.793,-7.621 -0.723,-1.308 -0.899,-2.98 -2.316,-3.859 -2.782,-0.07 -4.696,3.117 -6.629,4.57 -1.719,1.836 -2.989,4.074 -2.317,6.813 0.278,0.836 1.106,0.406 1.574,0.191 1.68,-0.547 2.981,-3.617 4.747,-2.262 -0.04,1.645 -1.524,3.047 -0.801,4.645 z m 2.695,2.117 c -3.019,4.527 -5.644,9.195 -6.348,14.699 0.137,0.379 0.664,0.477 0.977,0.192 2.352,-3.121 5.371,-7.789 9.844,-7.743 1.308,1.407 -0.625,2.86 -0.977,4.356 -0.265,1.672 -1.457,3.359 -0.754,5.074 1.438,0.313 1.406,-1.402 2.414,-1.996 2.93,-1.887 5.95,-4.336 6.653,-7.812 0.027,-3.383 -0.395,-7.414 -3.11,-9.532 -3.023,-0.019 -6.226,0.645 -8.699,2.762 z m -31.894,-38.133 c -3.418,-4.406 -8.602,-7.883 -14.512,-7.625 -2.879,0.598 -5.86,1.41 -7.91,3.934 0.39,2.5 -2.813,3.308 -2.286,5.906 -1.804,5 -4.316,9.934 -3.359,16.008 -0.715,6.238 0.606,12.859 2.168,18.719 0.566,0.933 1.758,4.453 3.184,2.078 0.019,-5.602 -1.551,-11.246 0.644,-16.461 0.703,-0.383 1.16,-1.168 2.071,-1.074 1.621,1.476 -0.118,4.078 1.257,5.765 0.825,0.571 1.313,-0.406 1.633,-1 0.938,-5.789 0,-12.84 2.805,-17.984 0.555,-0.953 1.726,-1.762 2.762,-1.356 0.957,0.571 0.5,1.164 0.546,2.043 -3.039,7.864 -2.968,18.297 0.196,25.969 0.605,0.164 0.703,-0.289 1.008,-0.672 0.601,-5.261 -0.735,-10.523 1.062,-15.457 2.258,0.598 2.023,3.168 2.727,4.84 1.433,5.496 -0.246,10.883 1.484,16.219 0.613,-0.047 0.484,-0.809 0.945,-1.098 3.914,-11.91 11.973,-26.461 3.575,-38.754 z m -23.77,113.449 c -0.254,1.122 0.547,2.668 -0.703,3.364 -1.192,-0.407 -2.617,-0.672 -3.66,-1.102 -0.383,0.098 -0.703,0.695 -0.793,1.125 0.058,0.235 0.136,0.473 0.117,0.856 2.383,1.496 4.758,3.093 7.363,4.144 0.508,0.926 1.824,2.383 2.696,0.903 -0.262,-3.786 -2.586,-6.813 -4.317,-10.024 -0.664,-0.266 -0.312,0.524 -0.703,0.734 z m -7.148,8.957 c -1.954,-0.214 -4.356,-0.644 -5.918,0.809 0.546,1.766 2.988,1.219 4.414,1.859 2.773,0.618 4.504,-1.527 6.789,-2.046 0.086,-0.243 0.242,-0.454 0.183,-0.762 -1.648,-0.668 -3.496,0.355 -5.468,0.14 z m 6.523,15.793 c -1.289,0.047 -1.184,1.571 -2.109,2.215 -0.704,0.598 -1.329,1.383 -2.454,1.071 -1.406,-1.192 -1.714,-3.098 -2.585,-4.547 l 0.039,-1.289 c -1.731,-0.282 -2.403,2.05 -3.575,3.078 -0.691,3.07 1.512,5.262 3.262,7.426 2.109,0.144 4.551,-0.692 5.813,-2.543 0.671,-1.719 2.136,-3.121 1.609,-5.411 z m -8.66,-6.695 c -0.598,-2.57 2.566,-2.402 3.972,-3.43 l 0.458,-0.593 c -0.489,-1.071 -1.844,-1.192 -2.84,-0.907 -2.657,0.739 -6.055,0.5 -8.438,-0.714 -1.289,-0.192 -2.5,0 -3.43,0.808 0.239,2.121 3.079,0.785 4.485,1.406 1.055,0.575 2.168,0.93 3.125,1.762 -2.578,2.5 -6.504,0.192 -9.754,0.332 -2.102,-0.594 -4.887,-1.281 -6.582,0.242 -0.102,0.454 0.418,0.832 0.789,1.024 3.203,-0.735 4.941,1.883 7.734,1.953 2.461,1.144 5.364,0.309 7.715,-0.215 0.852,-0.734 1.992,-0.785 2.766,-1.668 z m -7.219,5.387 c -5.215,0.07 -9.375,-2.625 -14.512,-2.195 -0.332,0.457 -1.152,0.214 -1.308,0.882 -0.254,0.739 0.73,0.547 1.101,0.856 1.379,1.789 3.821,0.953 5.371,2.359 1.426,0.121 3.11,-0.191 3.977,1.098 3.312,0.262 6.523,-0.477 8.555,-2.762 l 0.007,-0.672 c -1.121,-0.57 -2.117,0.309 -3.191,0.434 z m -13.379,-14.152 c 5.547,1.761 11.563,0.261 15.75,-3.379 3.567,-5.481 4.934,-13.075 2.473,-19.438 -1.602,-4.359 -5.254,-9.004 -10.227,-9.453 -5.886,-2.672 -11.941,0.398 -16.597,4.187 -3.45,3.766 -6.477,8.958 -4.282,14.079 1.164,6.527 6.352,12.289 12.883,14.004 z m -19.043,-97.301 c 0.293,0.074 0.449,-0.164 0.606,-0.309 -0.41,-11.883 0.078,-23.055 0.898,-35.203 0.781,-10.625 1.113,-21.965 1.66,-32.367 -0.32,-1.981 -2.48,-3.27 -2.949,-5.172 -1.172,-1.309 -2.187,-3.004 -3.672,-3.5 -1.543,3.211 -0.82,7.312 -1.609,10.84 -0.61,17.457 -2.961,35.512 -2.61,53.754 0.696,2.289 2.364,4.218 2.989,6.504 1.523,1.929 3.523,3.574 4.687,5.453 z m 5.391,-70.809 0.5,0.902 c 2.808,2.145 5.437,4.93 7.566,7.407 0.449,0.168 0.828,-0.047 1.133,-0.403 -1.269,-5.265 -2.473,-10.437 -5.742,-14.839 -0.137,-0.622 0.098,-1.145 0.644,-1.262 2.032,2.551 3.907,5.48 6.653,7.523 1.676,1.93 2.656,4.383 4.968,5.598 1.192,-1.641 -0.039,-3.57 -0.058,-5.289 -0.527,-7.879 -4.453,-15.336 -11.836,-18.598 -2.512,0 -4.031,-2.285 -6.699,-1.34 -2.063,0.481 -4.297,2.168 -5.11,4.036 -0.73,6.472 3.657,11.738 7.981,16.265 z m -3.953,-23.16 3.308,0.645 c 0.379,-0.137 0.684,-0.286 0.989,-0.645 0.886,-8.828 1.16,-18.125 2.418,-27.227 0.343,-6.562 1.183,-12.351 1.847,-18.855 0.586,-4.289 0.274,-9.055 2.117,-12.844 1.711,-3.672 -1.011,-6.406 -2.293,-9.375 -3.32,0.274 -0.273,4.278 -2.207,5.899 -2.851,11.699 -6.289,23.105 -6.972,35.703 -0.782,5.793 -1.258,11.75 -1.524,17.722 -1.054,3 -0.254,6.262 -1.101,9.438 1.179,1.004 2.195,-0.481 3.418,-0.461 z m -2.727,-85.508 c 0.254,4.024 0.527,8.028 3.223,11.133 0.078,2.109 2.429,2.285 3.672,3.445 2.031,-0.027 4.492,1.711 6.132,0.032 0.04,-1.434 2.024,-2.2 1.387,-3.821 -1.054,-2.371 -2.363,-4.136 -4.512,-5.73 -1.054,-0.176 -2.675,1.062 -3.156,-0.528 0.461,-2.734 4.114,-0.957 4.856,-3.261 0.066,-2.364 1.074,-4.981 0.066,-7.196 -2.195,-0.214 -5.281,-0.304 -7.43,-1.496 -1.054,-0.644 -2.089,-1.504 -3.378,-1.172 -2.254,1.973 -1.465,5.86 -0.86,8.594 z m 5.012,-9.883 c 2.012,0.813 4.363,0.879 6.414,0.196 -0.293,-2.434 -1.074,-4.727 -0.899,-7.364 0.379,-3.007 1.778,-6.152 4.903,-7.343 l 0,-0.157 c -2.246,-0.507 -4.031,1.231 -6.028,1.856 -2.617,1.66 -3.015,4.621 -4.226,7.07 -0.117,1.887 -2.149,4.102 -0.164,5.742 z m 19.793,-2.05 c 2.051,-0.215 4.472,-0.215 5.527,-2.325 -0.234,-2.414 -1.484,-4.336 -1.094,-6.894 0.469,-2.637 0.313,-5.528 1.805,-7.664 l 0.051,-0.981 c -1.902,0.168 -3.555,1.926 -5.098,3.41 -2.883,2.852 -5.937,5.926 -5.742,10.02 0.691,2.051 2.832,3.34 4.551,4.434 z m 94.023,2.148 c -0.547,0.352 -0.332,1.289 -0.195,1.758 1.875,2.91 5.43,0.605 8.105,1.64 l 0.469,-0.253 c 0.547,-3.243 -2.871,-5.313 -3.535,-8.29 -0.52,-0.761 -0.781,-1.527 -0.898,-2.433 -1.614,-2.024 -2.989,-4.024 -5.137,-5.527 l -0.985,-0.02 c 0.543,4.375 4.208,8.047 2.176,13.125 z m 9.551,6.934 c -0.652,-0.547 -1.379,-1.407 -2.305,-0.911 -2.851,1.438 -5.214,-0.828 -7.988,-0.828 -0.976,2.239 -1.738,4.688 -1.523,7.266 1.699,1.855 3.691,3.203 5.3,5 0.063,0.527 -0.105,1.133 -0.711,1.191 -2.05,0.469 -4.406,-3.906 -5.871,-0.793 -1.218,2.454 -2.429,4.934 -2.964,7.786 1.843,1.406 3.64,-0.418 5.32,-0.977 l 2.89,-0.762 c 5.274,-1.035 5.286,-6.64 7.657,-10.117 0.066,-2.266 3.008,-5.051 0.195,-6.855 z m -11.34,101.109 c -6.148,-1.168 -11.902,1.523 -15.984,6.098 -1.895,3.047 -3.809,6.07 -4.309,9.765 0.371,0.547 1.047,0.856 1.594,0.524 3.176,-2.93 6.75,-5.621 10.625,-7.028 l 0.586,0.762 c 0.703,-0.355 1.035,-1.547 1.934,-1.07 0,0.449 0.886,0.64 0.339,0.996 -4.812,4.004 -7.82,8.769 -9.265,14.316 -0.274,1.051 0.937,1.074 1.64,0.813 5.078,-3.098 10.098,-6.672 14.832,-10.742 1.829,-2.668 4.184,-5.645 2.688,-9.243 -0.371,-2.429 -2.129,-4.668 -4.68,-5.191 z m 3.449,97.871 c 0.215,0.547 0.977,0.356 1.27,0.215 2.187,-1.672 3.086,-4.145 4.805,-6.125 3.789,-2.856 7.246,-7.145 11.816,-8.434 1.426,-1.925 3.762,-1.547 5.461,-2.855 -0.332,-1.836 -1.34,-3.664 -3.203,-4.262 -5.52,-0.238 -8.801,3.738 -12.539,7.504 -4.192,3.883 -5.949,8.883 -7.61,13.957 z m 22.93,8.906 c -1.211,-0.5 -2.812,-0.019 -3.879,0.715 -4.148,1.832 -2.383,6.434 -3.172,9.793 -0.234,2.641 -0.703,5.809 0.743,7.953 0.683,0.192 1.152,-0.644 1.464,-1 2.063,-5.597 5.098,-10.812 4.844,-17.461 z m -3.867,38.754 c -0.488,-0.855 -1.113,-0.5 -1.797,-0.355 -1.414,2.07 -4.102,3.121 -4.617,5.594 -0.422,0.976 -1.613,0.546 -2.219,0.382 -0.137,-0.382 -0.652,-0.617 -0.332,-1.07 3.047,-3.523 3.574,-8.125 6.621,-11.672 -0.168,-2.336 -2.012,-3.976 -3.008,-5.523 -0.3,-0.145 -0.672,-0.168 -0.976,-0.168 -1.641,1.383 -1.621,3.476 -2.891,5.051 0.039,1.429 -0.683,2.621 -1.387,3.804 0.704,4.031 -2.617,6.199 -4.14,9.246 -2.012,1.598 -4.641,1.598 -6.465,3.836 -0.105,0.809 -0.125,1.641 0.535,2.285 2.57,2.618 6.067,-0.742 8.977,0.715 1.308,-0.812 2.871,0.379 4.316,-0.191 2.012,-1.215 3.887,-2.879 6.289,-2.981 1.621,-1.14 2.449,-3.168 1.895,-5.238 -0.262,-1.215 -0.91,-2.355 -0.801,-3.715 z m -5.117,36.731 c -0.203,-1.121 -1.133,-2.528 -0.047,-3.551 1.25,-1.02 2.93,-1.5 3.418,-3.238 0.418,-0.953 0.222,-1.953 -0.891,-2.286 -3.418,-0.191 -6.328,-1.48 -8.496,-4.41 0.012,-0.519 -0.039,-1.14 0.567,-1.425 2.343,-0.145 2.343,3.023 4.511,3.378 1.594,-0.164 3.289,1.407 4.61,0 -0.469,-1.832 2.043,-2.664 2.097,-4.476 -0.816,-3.047 0.52,-6.859 -1.218,-9.551 -3.782,-0.117 -7.012,4.379 -10.86,1.238 -2.5,0.383 -4.648,1.551 -7.441,1.211 -1.922,1.481 -2.598,4.032 -2.239,6.457 0.707,1.762 2.766,1.215 3.79,2.524 1.132,0.125 2.511,-0.762 3.468,0.265 -0.429,1.645 -2.89,0.883 -4.179,1 -1.133,-0.5 -2.305,-1.355 -3.594,-1.093 -1.328,0.804 -1.133,2.453 -0.945,3.691 1.746,4.121 6.511,4.719 10.398,5.598 0.234,0.238 0.598,0.547 0.437,0.926 -4.39,2.574 -8.523,-0.786 -11.929,-3.024 -0.52,-0.238 -1.067,0.215 -1.098,0.715 0.766,2.902 2.102,6.215 5.395,7.191 0.214,0.481 0.964,0.719 0.711,1.313 -1.153,0.812 -2.176,-0.285 -3.301,-0.379 -1.485,-1.406 -3.328,-2.695 -5.188,-3.574 0.149,2.429 2.512,4.383 3.508,6.691 -0.176,0.285 -0.176,0.598 -0.566,0.809 -3.282,-1.692 -5.45,-4.688 -8.575,-6.664 -0.898,-0.34 -2.031,-0.215 -2.714,0.355 -0.567,0.449 -0.43,1.258 -0.223,1.805 2.43,2.574 4.598,5.816 5.789,9.101 2.012,5.645 9.004,4.813 12.727,8.84 1.836,-0.547 4.226,0.664 5.093,-1.289 -0.73,-0.902 -1.765,-1.094 -2.8,-1.5 -2.442,-1.879 -6.133,-2.762 -7.012,-6.265 1.562,-1.165 2.226,1.5 3.508,2.003 0.867,0.622 1.914,1.547 3.132,1.071 1.563,-1.766 3.477,2.597 4.473,-0.715 -0.625,-1.598 -2.578,-2.168 -3.906,-3.121 -1.465,-1.332 -2.852,-3.262 -3.469,-5.238 0.481,-0.977 1.379,-0.047 2.055,-0.098 2.058,1.715 4.019,4.262 6.746,4.195 3.293,-1.551 4.453,-5.074 4.258,-8.48 z m -34.961,29.582 c 2.344,2.617 5.887,2.359 8.496,4.261 6.824,1.93 14.441,-0.64 20.215,3.622 l 7.324,5.05 c 2.734,0.094 4.023,2.832 6.16,3.977 0.754,0.238 1.535,-0.192 1.621,-0.879 -0.73,-3.434 -2.449,-6.48 -2.722,-9.957 -0.684,-5.336 -6.465,-6.098 -9.637,-9.148 -2.285,-1.524 -5.246,-1.524 -7.778,-2.426 -5.906,-0.028 -11.113,-3.047 -14.128,-7.84 0.957,-1.57 -0.762,-2.598 -1.875,-3.234 -1.336,-0.864 -3.457,-0.622 -4.239,-2.168 0.617,-0.649 2.051,-0.457 1.856,-1.766 -3.098,-2.57 -8.289,-0.477 -11.465,-2.836 -0.449,-0.383 -1.191,-0.641 -1.25,-1.309 0.851,-0.668 2.715,0.141 2.598,-1.355 -2.266,-2.195 -5.774,-1.481 -8.379,-2.84 -0.196,-0.594 0.488,-0.879 0.859,-0.949 1.211,-0.027 2.246,0.832 3.457,0.402 -0.027,-1.14 -1.465,-1.023 -2.129,-1.64 -2.597,-1.215 -6.199,-0.336 -8.398,-2.289 1.093,-1.02 3.047,-0.524 3.828,-1.715 -2.891,-1.813 -6.602,-1.785 -9.395,-3.762 -2.246,-1.5 0.868,-6.621 -3.125,-5.242 -2.363,1.765 -3.371,4.386 -3.828,7.101 0.723,1.071 -0.488,3.739 1.485,3.426 1.914,-0.996 1.679,-3.117 3.3,-4.047 1.289,-0.117 1.914,1.332 2.637,2.117 -1.816,3.098 2.805,3.172 4.024,5.243 -0.391,2.574 2.57,2.214 3.906,3.144 2.629,0.762 5.41,1.313 7.871,2.36 -0.02,0.453 -0.535,0.355 -0.781,0.593 -0.43,-0.238 -0.977,-0.191 -1.426,-0.191 -0.313,0.215 -0.391,0.43 -0.32,0.812 2.839,3.789 7.847,2.879 11.816,4.286 -0.266,1.05 -1.77,1.074 -0.981,2.382 2.649,2.285 7.61,1.145 8.762,5.266 0.059,0.836 1.223,1.93 0.086,2.5 -1.863,-0.977 -3.406,-2.832 -5.183,-3.957 -1.7,-1.856 -3.77,-2.879 -5.95,-3.566 0.207,1.214 0.93,1.828 1.809,2.781 3.469,3.265 5.449,7.406 6.855,11.527 -0.273,0.836 -1.25,0.43 -1.757,0.34 -3.165,-3.121 -6.875,-5.195 -10.274,-7.723 -0.84,-0.023 -1.582,-0.57 -2.422,-0.238 -0.722,1.742 1.66,2.34 2.324,3.621 2.278,1.738 3.946,4.215 6.153,6.266 z m -32.84,-17.84 c -1.008,1.117 -0.852,3.004 -0.969,4.598 -0.469,0.359 -0.613,0.425 -1.289,0.332 -1.262,-1.094 -2.195,-2.645 -1.926,-4.36 -0.371,-0.308 -0.672,-0.332 -0.972,0.098 -0.696,2.715 -0.102,5.762 1.187,8.219 0.735,0.851 1.828,1.879 2.981,1.523 1.379,-0.785 2.109,-2.266 3.203,-3.457 -0.606,-2.355 -0.293,-5.238 -2.215,-6.953 z m 10.164,3.906 c -1.074,0.926 -1.934,-0.523 -2.832,-0.93 -1.316,-1.332 -1.738,-2.687 -2.91,-4.093 -0.586,-0.242 -0.918,0.429 -1.153,0.808 -0.007,2.789 0.911,5.239 2.04,7.524 1.156,1.574 3.507,1.551 4.511,3.551 1.125,0.71 3.735,1.621 3.879,-0.711 0.059,-2.266 1.035,-4.219 2.078,-5.985 -0.32,-2.117 -1.558,-3.906 -2.41,-5.836 -0.43,-0.453 -1.101,-0.926 -1.711,-0.711 0.449,2.36 -0.965,4.192 -1.492,6.383 z m 2.371,22.817 c 0.07,2.644 3.027,2.289 4.66,3.003 3.407,0.332 6.739,-0.332 8.574,-3.382 0.567,-1.196 1.114,-2.215 1.387,-3.504 -1.621,-1.164 -1.25,-3.574 -3.027,-4.692 -2.754,0.883 -1.945,4.477 -4.043,6.215 -2.871,1.953 -5.488,-1.14 -8.106,-1.972 -1.023,1.335 0.286,2.882 0.555,4.332 z m 3.606,-5.926 c 0.703,0 1.378,0.043 1.765,-0.621 -0.027,-3.575 4.758,-7.289 0.617,-10.336 -2.871,0.187 -2.207,3.383 -3.32,5.164 -2.187,1.742 -3.594,-1.617 -5.859,-1.449 -0.977,-0.168 -1.7,0.785 -1.192,1.687 0.489,3.957 5,4.41 7.989,5.555 z m -21.485,6.14 c 1.621,3.668 6.074,4.262 9.785,4.289 1.778,-1.597 2.364,-3.621 3.789,-5.308 0.411,-1.266 -0.468,-2.598 -0.964,-3.602 -1.047,-0.093 -1.633,1.715 -2.786,2.196 -1.914,0.851 -4.05,1.546 -6.308,0.953 -1.199,-0.266 -2.051,-1.649 -3.281,-1.242 -0.547,0.668 -0.43,1.878 -0.235,2.714 z m 4.356,-4.836 c 2.382,0.981 3.086,-2.406 4.414,-3.714 0.488,-1.286 2.695,-1.954 1.699,-3.739 -0.508,-0.687 -0.684,-2.285 -1.914,-1.715 -1.848,1.071 -2.844,3.93 -5.156,2.79 -1.036,-0.86 -1.59,-2.243 -2.942,-2.5 -1.25,1.019 -0.547,2.929 -0.816,4.425 1.551,1.645 2.715,2.883 4.715,4.453 z m -5.274,-39.367 c 1.68,0.996 4.031,-0.765 5.313,1.188 l 0.449,-0.145 c 0.437,-2.258 1.855,-4.972 0.527,-7.312 -0.058,-1.332 0.879,-2.426 0.617,-3.594 -1.417,0.238 -1.164,1.812 -2.003,2.598 -0.481,0.808 -0.782,1.523 -1.622,1.879 -1.914,-0.29 -1.042,-4.692 -3.476,-2.477 -0.645,1.551 1.055,4.238 -1.113,5 -1.368,-1.523 -1.536,-3.383 -2.532,-4.977 -0.742,0.426 -1.668,1.286 -1.765,2.336 3.293,1.211 -0.528,5.024 3.078,6.168 0.945,0.547 1.851,-0.097 2.527,-0.664 z m -1.933,19.864 c -1.289,0.046 -0.723,1.406 -1.348,2.07 -0.469,0.594 -0.957,1.859 -1.934,1.383 -1.015,-1.168 -1.269,-2.832 -0.847,-4.336 l -0.442,-0.383 c -1.582,1.91 -2.617,4.219 -2.468,6.644 0.183,1.672 1.648,3.145 3.054,3.957 1.367,-0.05 2.227,-1.242 3.457,-1.64 1.575,-2.149 1.289,-5.313 0.528,-7.695 z m -7.493,12.191 c -0.359,-1 -1.074,-1.996 -2.039,-2.641 -0.976,-0.097 -1.535,0.645 -1.921,1.379 -0.637,0.739 -0.286,1.813 -0.403,2.715 1.387,2.027 1.985,4.672 4.153,5.859 2.488,0.094 3.777,-2.976 6.414,-2.523 0.859,-0.645 0.664,-1.785 0.781,-2.832 -2.285,-2.051 -5.574,1.359 -6.985,-1.957 z m 0.305,16.461 c 1.492,0.187 2.715,-0.07 3.731,-1.027 1.386,-1.309 1.308,-3.356 2.714,-4.688 0.032,-0.883 0.118,-1.953 -0.761,-2.43 -3.543,-0.574 -4.121,4.047 -7.598,3.168 -1.23,-1.457 -3.457,-2.672 -4.004,-4.644 -0.515,-0.477 -1.015,-1.098 -1.711,-0.645 -0.789,0.785 -1.504,1.598 -1.734,2.645 1.687,3.902 4.668,7.644 9.363,7.621 z m -7.91,-15.742 c 0.43,-1.051 0.762,-2.551 0.43,-3.551 -2.227,0.238 -4.844,-0.215 -5.84,-2.738 -0.86,-1.407 -1.192,-3.121 -2.598,-4.239 -1.289,0.711 -2.09,2.286 -2.668,3.618 1.223,2.476 1.985,4.98 3.332,7.289 0.293,0.382 0.664,0.789 1.094,0.859 2.148,-0.285 4.004,-1.836 6.25,-1.238 z m -13.484,12.125 c 2.195,-0.075 4.382,-0.102 6.101,-1.551 1.16,-1.024 1.524,-3.191 3.418,-3.434 0.703,-0.281 0.723,-1.117 0.723,-1.57 -0.879,-1 -2.102,-0.141 -3.164,-0.258 -2.266,-0.074 -5.293,2.809 -6.563,-0.644 -0.636,-1.075 -1.035,-2.907 -2.469,-3.028 -1.339,1.313 -2.218,2.953 -1.886,4.789 1.386,2 1.836,4.289 3.84,5.696 z m -51.055,-0.719 c -0.402,2.715 0.215,5.387 0.359,8.027 0.43,0.336 0.723,1 1.25,1.024 2.852,0.761 2.188,-2.571 3.516,-3.739 1.445,-2.765 3.652,-5.644 6.836,-6.382 5.683,-0.262 12.305,0.902 17.5,-1.051 4.414,-0.856 7.988,-4.285 11.426,-7.598 0.898,-0.047 1.328,0.785 2.382,0.528 1.043,-1.407 3.926,-2 3.165,-4.219 3.261,-0.356 4.277,-4.047 6.679,-5.86 -2.285,-2.027 4.766,-5.074 -0.625,-4.691 -4.062,2.219 -7.668,-1.07 -11.679,-1.266 -0.989,0.266 -2.188,0.172 -3.047,0.977 l 0.351,0.836 c 2.442,1.738 5.125,3.027 8.367,3.266 0.754,0.472 0.246,2.046 1.704,1.5 0.535,-0.594 1.101,-1.696 2.078,-1.524 0.3,0.141 0.136,0.524 0.136,0.828 -1.836,0.481 -2.273,2.672 -4.257,3.055 -1.504,-0.051 -3.184,0.215 -3.985,1.762 -0.683,2.55 -3.515,3.765 -5.586,4.668 -0.996,0.644 -2.148,1.449 -3.429,0.953 -0.582,-0.524 -1.25,-1.242 -0.692,-2.051 1.914,-2.977 4.336,-5.688 6.61,-8.43 l 0,-0.289 c -2.801,0.145 -4.559,3.719 -7.43,3.41 -0.371,-0.406 -0.653,-1.074 -0.266,-1.597 1.125,-1.785 3.528,-3.981 1.926,-6.004 -1.953,-0.211 -2.93,1.953 -3.945,3.219 -0.235,2.71 -2.981,3.449 -5.047,4.285 -2.141,0.785 -4.446,-0.332 -6.731,0.121 -1.992,0.715 -4.277,-1.047 -5.761,0.804 -6.719,2.079 -11.309,8.672 -11.805,15.438 z m -1.684,-111.66 c 1.098,3.594 0.364,7.879 2.688,10.98 1.765,-0.476 0.625,-2.644 1.269,-4.144 0.996,-3.219 1.043,-7.051 1.602,-10.293 -1.008,-1.692 -2.957,-2.977 -4.91,-2.715 -1.196,1.621 -0.676,4.219 -0.649,6.172 z m 16.789,5.691 c 0.508,0.832 2.012,1.192 2.266,-0.07 -0.039,-3.195 -1.328,-5.953 -2.305,-8.699 -2.746,-4.239 -3.507,-9.403 -7.461,-13.075 -2.089,-1.285 -3.808,-4.191 -6.621,-3.832 -1.289,2.239 -3.093,4.454 -2.929,7.098 6.269,5.238 13.339,11.504 17.05,18.578 z m -11.687,-37.488 c -1.192,-0.555 -2.442,-1.645 -3.664,-1.242 -0.305,2.336 -1.094,5.859 1.367,7.218 1.262,0.879 3.145,3.426 4.141,0.809 0.437,-2.48 0.527,-5.219 -1.844,-6.785 z m 3.719,1.449 c 2.675,4.313 7.05,7.168 8.574,11.887 0.371,0.336 0.859,1.402 1.426,0.57 -0.508,-8.242 -3.926,-15.527 -8.789,-22.031 -2.332,-3.168 -6.094,-3.809 -9.297,-5.406 -1.055,-0.121 -1.985,0.855 -2.383,1.738 -0.488,0.977 -0.977,2.168 -0.637,3.312 3.996,2.762 8.203,6.047 11.106,9.93 z m -21.121,3.789 c 0.457,2.664 1.121,5.481 3.796,7 1.426,0.813 3.039,2.047 4.649,1.598 l 1.68,-3.145 c 0.429,-4.218 -4.082,-5.261 -6.504,-7.527 -0.84,-0.094 -0.871,-1.309 -1.719,-0.715 -1.231,0.547 -1.563,1.766 -1.902,2.789 z m 2.976,-39.019 c -1.133,-0.407 -1.758,0.547 -2.605,0.91 -1.243,1.332 -2.141,3.047 -1.582,5.023 0.601,2.5 3.699,2.524 4.617,4.977 3.496,1.621 5.351,5.457 8.222,7.887 1.446,-0.262 2.989,1.453 4.004,-0.051 -3.183,-6.879 -7.082,-13.051 -12.656,-18.746 z m 17.09,-93.91 c -3.856,13.027 -7.5,26.218 -9.5,40.156 -2.336,11.644 -2.688,24.195 -4.797,35.918 0.606,5.453 -0.332,10.933 -0.488,16.457 1.23,1.691 3.164,2.668 4.707,4.004 0.39,0.023 0.691,-0.145 0.937,-0.504 -0.195,-9.074 2.024,-17.414 1.621,-26.41 0.801,-6.555 1.68,-13.7 2.5,-20.278 -0.246,-6.804 1.231,-13.543 1.446,-20.574 0.761,-7.559 2.48,-14.746 3.105,-22.461 0.274,-2.098 1.016,-4.055 0.781,-6.308 l -0.312,0 z m 3.625,9.953 c -1.086,6.16 -1.074,13.054 -2.297,18.914 -1.582,11.906 -1.738,24.672 -2.539,36.656 -0.703,3.402 -1.133,7.234 -1.309,11 -1.074,7.769 -0.722,15.863 -2.441,23.437 -0.684,4.672 0.859,8.579 2.5,12.387 1.094,0.953 2.695,2.981 3.945,1.574 0.703,-7.836 0.176,-15.648 0.703,-23.629 0.79,-3.476 0.821,-6.644 0.918,-10.335 0.762,-12.77 1.133,-24.989 2.715,-37.348 2.324,-17.102 3.985,-34.492 5.567,-51.926 0.715,-6.308 1.875,-12.41 2.832,-18.672 -0.157,-0.293 -0.742,-0.691 -1.133,-0.312 -4.59,12.097 -7.481,24.941 -9.461,38.254 z m 140.934,-3.879 c -1.844,-8.887 -2.938,-18.008 -5.711,-26.543 -0.274,-2.969 -0.801,-5.781 -2.305,-8.242 -0.32,-0.02 -0.606,0.058 -0.859,0.261 -0.403,6.575 2.531,11.867 3.015,18.008 0.61,5.168 0.676,10.461 1.738,15.41 0.547,6.965 0.793,13.489 1.497,20.364 0.703,2.246 1.003,4.582 1.25,7.082 -0.555,5.359 1.21,9.851 0.82,15.144 0.742,5.313 1.797,10.723 1.555,16.227 0.527,9.691 2.371,18.91 2.371,28.89 0.976,2.809 -0.418,6.621 0.781,9.383 -0.391,2.645 -0.176,5.434 0.144,8.024 1.047,2.457 -1.589,7.363 2.473,7.554 1.465,-0.859 3.164,-1.953 4.277,-3.191 0.149,-3.098 -0.8,-6.145 -0.554,-9.481 0,-5.195 -1.282,-10.242 -0.824,-15.507 -0.145,-7.5 -0.458,-14.981 -1.356,-22.27 -1.191,-8.672 -1.816,-17.527 -3.398,-25.957 -0.684,-12.129 -3.536,-23.398 -4.914,-35.156 z m 21.574,94.937 c -1.328,-5.551 -0.02,-11.48 -1.067,-17.101 0.227,-5.219 -1.746,-9.578 -1.531,-14.719 -0.293,-7.938 -2.793,-15.055 -3.086,-22.988 -1.367,-7.766 -3.398,-15.383 -4.746,-23.125 -2.078,-9.055 -4.824,-17.844 -8.359,-26.34 -0.227,-0.176 -0.594,-0.176 -0.762,0.137 1.113,8.41 2.52,16.699 3.855,25.058 2.356,10.266 3.762,20.891 5.637,31.293 1.055,7.91 0.653,16.367 2.461,23.918 1.387,9.648 1.836,19.555 3.445,29.059 1.477,0.855 2.825,-0.762 4.329,-0.856 -0.247,-1.523 0.156,-2.715 -0.176,-4.336 z m 5.84,4.809 c -4.5,3.574 -10.039,6.98 -13.145,12.082 -1.25,1.332 -2.363,2.953 -1.738,4.926 0.664,0.718 1.387,1.57 2.39,1.074 2.434,-0.383 2.883,-2.863 5.52,-2.715 0.918,-0.504 0.508,-1.887 1.348,-2.523 2.5,-1.813 5.156,-4.696 7.402,-6.672 0.644,-1.332 1.57,-2.434 1.406,-4.121 -0.879,-0.836 -1.582,-2.692 -3.183,-2.051"
         style="fill:#000000;fill-opacity:1;fill-rule:nonzero;stroke:none"
         id="path4219"
         inkscape:connector-curvature="0" /><path
         d="m 421.395,701 c 2.5,-1.547 5.382,-1.855 8.214,-2.449 2.618,-0.598 5.782,0.308 7.911,-1.715 0.918,-1.356 3.32,-2.481 2.578,-4.574 l -0.586,-0.453 c -5.645,2.859 -13.418,0.144 -18.145,5.265 -1.875,0.477 -2.969,2.43 -3.457,4.117 -0.09,0.594 0.117,1.289 0.469,1.598 1.184,-0.117 1.973,-1.359 3.016,-1.789"
         style="fill:#000000;fill-opacity:1;fill-rule:nonzero;stroke:none"
         id="path4221"
         inkscape:connector-curvature="0" /><path
         d="m 573.535,701.977 c -0.41,-1.497 -1.492,-2.856 -2.566,-4.141 -5.403,-3.434 -12.102,-5.172 -18.711,-4.359 -0.363,0.117 -0.383,0.644 -0.18,0.878 4.192,1.43 8.762,1.93 12.57,4.262 2.774,1.481 5.618,3.102 8.711,3.508 l 0.176,-0.148"
         style="fill:#000000;fill-opacity:1;fill-rule:nonzero;stroke:none"
         id="path4223"
         inkscape:connector-curvature="0" /><path
         d="m 452.285,652.984 c -0.73,0.332 -7.844,-10.793 -0.73,-16.933 9.402,-8.125 20.078,5.57 17.793,8.883 -1.289,0.5 -4.075,-7.883 -11.965,-6.102 -9.473,2.148 -4.375,13.82 -5.098,14.152"
         style="fill:#000000;fill-opacity:1;fill-rule:nonzero;stroke:none"
         id="path4225"
         inkscape:connector-curvature="0" /><path
         d="m 524.727,638.574 c 0.253,-2.789 11.308,-8.316 16.511,-0.504 7.043,10.578 -3.054,16.77 -6.355,14.485 -0.508,-1.262 6.094,-4.075 2.793,-11.172 -3.594,-7.766 -13.086,-1.285 -12.949,-2.809"
         style="fill:#000000;fill-opacity:1;fill-rule:nonzero;stroke:none"
         id="path4227"
         inkscape:connector-curvature="0" /></g></g></svg>